<defs>
<font horiz-adv-x="214" ><font-face
    font-family="advert"
    units-per-em="1000"
    panose-1="0 0 0 0 0 0 0 0 0 0"
    ascent="962"
    descent="-215"
    alphabetic="0" />
<missing-glyph horiz-adv-x="800" d="M50 0V800H750V0H50ZM700 50V750H100V50H700Z" />
<glyph unicode=" " glyph-name="space" horiz-adv-x="260" />
<glyph unicode="!" glyph-name="exclam" horiz-adv-x="351" d="M234 284Q229 258 208 237T162 216Q143 216 127 231T99 290T81 385T55 657Q55 704 92 731T181 758Q222 758 250 739T279 684Q279 572 267 491T234 284ZM92 14Q57 39 57 78Q57 93 68 115T107 150T177
166Q219 166 246 141T273 82Q273 64 253 28T164 -9Q125 -9 92 14Z" />
<glyph unicode="&quot;" glyph-name="quotedbl" horiz-adv-x="500" d="M373 498Q362 476 350 458T327 439Q317 439 302 466T278 511T262 566T254 639Q254 686 273 718T333 751Q371 751 390 718T409 639Q409 603 400 567T373 498ZM160 498Q149 476 137 458T114
439Q104 439 89 466T65 511T49 566T41 639Q41 686 60 718T120 751Q158 751 177 718T196 639Q196 603 187 567T160 498Z" />
<glyph unicode="#" glyph-name="numbersign" horiz-adv-x="560" d="M489 564Q484 561 469 557T433 549Q426 509 426 476Q445 476 457 474T491 467Q496 463 506 451T516 424Q516 410 506 396T482 374T454 361T421 352Q416 328 413 311T406 284L408 298Q403 269
390 255T358 240Q340 240 325 253T303 288Q299 292 295 314T290 351H222Q218 326 214 311T207 284L210 298Q205 269 192 255T160 240Q142 240 127 253T106 282T97 313T93 348Q70 348 61 349T46 354Q55 354 63 353Q34 356 21 367T8 395Q8 412 23 431T61 460Q68 465
78 469T112 476Q112 487 114 512T117 545Q99 545 81 548T63 553Q72 552 80 552Q52 555 39 566T25 595Q25 614 39 631T77 658Q83 662 94 667T122 674Q127 702 136 726Q141 733 154 744T184 756Q198 756 210 747T233 720T246 667H319Q321 677 325 694T333 726Q340
736 354 746T382 756Q396 756 408 747T427 725T437 701T442 674Q478 674 507 665Q512 661 523 650T534 621Q534 607 524 593T489 564ZM236 550Q232 523 230 504T228 468H309L315 550H236Z" />
<glyph unicode="$" glyph-name="dollar" horiz-adv-x="510" d="M342 473Q324 473 283 497T226 521Q217 521 211 515T202 494Q201 481 214 467T275 441T379 372T436 241Q436 220 425 184T374 114T275 68Q273 55 266 40Q258 28 250 17Q250 22 252 27Q244 -2 216
-2Q195 -2 174 13T144 50Q143 56 142 66T141 82Q93 102 69 128T38 167T32 196Q32 215 44 239Q56 258 75 271T118 285Q125 284 129 284Q147 281 184 257T236 232Q254 232 264 242T275 267Q275 277 262 296T179 348T79 423T48 522Q48 578 87 622T185 680Q196 722
207 745Q212 748 220 751T238 754Q255 754 273 743T300 716T313 688T318 671Q338 663 350 656T379 633T405 594T414 550Q414 518 395 496T342 473Z" />
<glyph unicode="%" glyph-name="percent" horiz-adv-x="643" d="M206 392Q182 371 144 371Q117 371 95 381T58 415T34 475T25 551Q25 604 39 650T80 720T151 745Q176 745 199 736T245 691T269 566Q269 514 254 467T206 392ZM500 622Q488 609 420 473T290 204T224
55Q219 43 209 33T189 13Q176 -3 161 -3Q144 -3 130 13T116 49Q114 53 112 59T109 72Q109 81 112 90T128 114T208 259T338 522T411 679T435 721T455 742T475 748Q489 748 500 735T517 690Q519 680 514 657T500 622ZM543 22Q519 1 479 1Q452 1 430 11T395 44Q379
67 370 104T361 180Q361 234 375 279T417 350T487 375Q513 375 535 366T581 320T605 194Q605 140 590 95T543 22ZM147 645Q138 646 131 634T123 613L120 510Q120 494 125 484T145 469Q157 466 164 477T172 503L173 606Q173 622 167 632T147 645ZM483 275Q475 275
468 263T459 242L456 140Q456 124 461 114T481 99Q494 96 501 107T508 133L509 236Q509 252 503 262T483 275Z" />
<glyph unicode="&amp;" glyph-name="ampersand" horiz-adv-x="808" d="M634 234Q626 232 622 232Q611 232 591 239T562 247Q550 247 541 237T504 157T421 42T261 -3Q216 -3 176 9T94 49T34 114T14 194Q14 250 46 302T131 381Q88 406 66 446T44 532Q44 591 77 639T165
716T286 745Q354 745 403 721T466 675T480 625Q480 603 471 583T449 549T424 532T398 528Q382 528 342 538T288 548Q269 548 256 541T237 524T231 502Q231 470 249 459T276 447Q281 447 288 447T305 443T320 428T327 403Q327 394 326 388T318 365T266 318T219 256Q219
247 223 232T249 201T293 186Q299 187 302 187Q373 196 408 301T458 425Q500 473 573 473Q610 473 641 458T691 410T710 341Q710 305 691 276T634 234Z" />
<glyph unicode="&apos;" glyph-name="quotesingle" horiz-adv-x="270" d="M196 639Q196 603 187 567T164 504T137 458T114 439Q104 439 89 466T65 511T49 566T41 639Q41 686 60 718T120 751Q158 751 177 718T196 639Z" />
<glyph unicode="(" glyph-name="parenleft" horiz-adv-x="480" d="M400 628Q342 570 285 513Q232 427 232 319Q232 291 235 264T251 180T312 72T419 -40Q432 -56 432 -87Q432 -121 414 -154T370 -196T322 -206Q269 -206 222 -163T134 -47T71 117T48 299Q48 370
61 439T99 574Q117 631 145 674T209 746T272 787T329 799Q351 799 371 792T410 768Q421 760 432 739T443 697Q443 677 434 660T400 628Z" />
<glyph unicode=")" glyph-name="parenright" horiz-adv-x="480" d="M171 -205Q157 -212 141 -212Q102 -212 69 -177T36 -99Q36 -79 45 -61Q57 -42 129 27T217 135T242 221T250 316Q250 373 239 423T206 507T144 574T78 629T51 695Q51 738 81 770T172 803Q222 803
266 777T348 685T412 517T439 303Q439 132 372 -5T171 -205Z" />
<glyph unicode="*" glyph-name="asterisk" horiz-adv-x="570" d="M379 470Q398 446 412 425T427 394Q427 380 394 354T346 327Q336 327 315 365T286 404Q282 404 254 369T214 334Q200 334 171 360T142 403Q142 420 170 447T199 479Q199 485 160 496T121 527Q121
537 135 571T172 605Q184 605 211 591T242 578Q246 579 241 593T232 620Q228 639 244 654T284 670Q316 670 334 661T352 625L350 576Q376 586 391 591T412 595Q435 592 446 566T464 513Q464 493 422 486T379 470Z" />
<glyph unicode="+" glyph-name="plus" horiz-adv-x="510" d="M430 305Q421 298 386 289T337 282L311 286L315 247Q316 243 316 233Q316 204 310 173Q308 168 306 163L307 177Q304 149 291 137T256 124Q236 124 218 135T189 167Q182 174 176 186T169 223Q169 228
170 234T171 244L176 287L136 282Q132 281 122 281Q100 281 75 285T50 292Q59 291 66 291Q38 294 26 307T13 341Q13 362 24 380T56 408Q64 415 76 421T114 428Q126 428 133 427L176 421L171 465Q169 479 169 487Q169 504 170 511T180 551Q187 560 202 569T233 578Q248
578 262 571T289 547T309 497T315 448L312 422L354 427Q362 428 376 428Q395 428 404 427T440 418Q449 411 458 396T467 365Q467 350 460 336T430 305Z" />
<glyph unicode="," glyph-name="comma" horiz-adv-x="345" d="M170 -122Q162 -128 149 -128Q133 -128 120 -119T106 -96Q106 -89 119 -66T132 -24Q132 -10 108 9T73 42T62 75Q62 96 76 116T110 145T147 160T183 166Q212 166 236 151T269 117T278 73Q278 62 275
31T247 -42T170 -122Z" />
<glyph unicode="-" glyph-name="hyphen" horiz-adv-x="480" d="M389 299Q380 292 345 282T296 274Q258 282 219 282Q183 282 166 278T139 273Q100 273 79 282T47 308T36 346Q36 391 78 414Q89 425 102 431T134 437Q141 437 169 432T230 426Q260 426 293 431T333
437Q351 437 359 436T398 425Q404 420 415 404T426 366Q426 348 419 333T389 299Z" />
<glyph unicode="." glyph-name="period" horiz-adv-x="345" d="M97 16Q69 34 69 68Q69 91 85 116T133 159T202 176Q234 176 258 165T289 141T296 104Q296 54 260 24T172 -6Q131 -6 97 16Z" />
<glyph unicode="/" glyph-name="slash" horiz-adv-x="510" d="M465 606Q452 592 381 452T240 164T164 -1T144 -34T117 -61T80 -74Q53 -74 33 -53T12 -2Q9 8 9 14Q9 28 14 42T34 73T122 235T263 522T340 690T365 741T388 767T404 772T420 774Q444 774 463 757T489
695Q492 682 484 650T465 606Z" />
<glyph unicode="0" glyph-name="zero" horiz-adv-x="580" d="M389 31Q343 -9 266 -9Q212 -9 166 12T91 80T44 199T27 349Q27 454 57 547T126 678T200 727T276 738Q329 738 374 719T448 657T496 539T514 380Q514 273 483 180T389 31ZM273 538Q255 540 239 515T223
473L215 268Q215 237 227 215T254 189T275 185Q297 185 308 206T320 255L324 459Q324 492 313 512T273 538Z" />
<glyph unicode="1" glyph-name="one" horiz-adv-x="390" d="M313 64Q313 34 285 17T218 0Q189 0 164 9T124 41T101 93T92 154Q92 198 116 300T140 460Q140 469 131 469Q122 469 113 459T84 449Q57 449 34 465T11 504Q11 517 48 560T132 660T189 730T212 750T239
755Q258 755 274 748T298 728T311 618T316 391Q316 280 315 204T313 64Z" />
<glyph unicode="2" glyph-name="two" horiz-adv-x="610" d="M262 215Q267 210 272 206Q299 199 308 204Q342 225 376 247Q395 257 413 257Q426 257 439 253T475 235T511 196T524 142Q524 110 512 81T474 35T412 14Q367 14 314 29T239 44Q218 44 195 38T155 21T127
11Q110 11 93 22T66 58T56 112Q56 135 62 156T88 218T138 296T230 398T306 484T325 515T328 533Q328 543 321 556T293 569Q281 569 264 556T220 522Q188 500 163 500Q148 500 136 505T93 536T63 618Q63 665 97 695T180 742T283 759Q339 759 386 740T463 684T505
613T518 545Q518 463 443 376Q352 295 262 215Z" />
<glyph unicode="3" glyph-name="three" horiz-adv-x="615" d="M435 422Q429 417 429 413Q429 406 441 401Q484 377 505 335T526 241Q526 189 508 143T433 48T273 -1Q233 -1 192 10T117 42T69 88T55 144Q55 167 71 215T162 263Q187 263 199 258T244 234T293 215Q301
215 312 218T329 232T336 256Q336 272 328 289T277 324T213 360T191 403Q191 427 253 467T317 514Q322 531 312 541T285 552Q271 552 256 539T221 515T178 504Q155 504 128 518T88 554T74 603Q74 628 84 651T121 698T191 736T285 751Q311 751 360 746T462 689T515
570Q515 558 512 534T491 482T435 422Z" />
<glyph unicode="4" glyph-name="four" horiz-adv-x="653" d="M503 161Q500 150 500 136Q500 130 501 116T502 94Q502 87 497 64T461 22T390 3Q322 3 301 32T277 75T274 102Q274 126 280 148T299 202Q304 213 293 215T275 220Q190 200 106 180Q82 180 65 190T43
216T38 244Q38 283 85 354T147 454T166 586T184 709T231 743T299 757Q335 757 365 741T405 702T415 666Q415 628 395 573T352 494Q312 448 291 413T275 365Q278 357 300 357Q320 357 334 365T348 390Q348 405 362 450T383 501T402 513T436 521Q451 521 462 516T483
499T497 476T501 450Q501 443 500 430T499 410Q499 403 503 380T518 353T558 340T594 315T603 273Q603 255 602 247T595 212T549 182T503 161Z" />
<glyph unicode="5" glyph-name="five" horiz-adv-x="650" d="M294 579Q282 582 277 570T271 539Q271 509 280 507Q298 511 321 514T365 518Q416 518 457 499T530 416T562 276Q562 220 541 171T459 67T286 12Q201 12 127 54T53 159Q53 165 58 191T90 242T155 267Q161
267 175 265Q236 237 297 209Q305 209 321 214T353 238T368 278Q368 290 360 312T338 346T309 358Q298 358 253 336T185 313Q172 313 152 320T123 343T110 389T104 428Q104 441 112 523T121 640V659Q121 664 120 676T119 695Q119 724 138 740T187 757Q204 757 229
747T292 737Q315 737 361 747T423 757Q433 757 438 756T469 749T514 716T533 656Q533 607 506 590T458 567T409 561Q383 561 356 565T294 579Z" />
<glyph unicode="6" glyph-name="six" horiz-adv-x="610" d="M418 547Q361 557 326 557Q273 557 267 541T257 517Q250 509 239 451T228 338Q228 282 241 244T286 196Q295 192 308 192Q345 192 350 214T356 248Q356 273 345 291T307 314T268 339T256 383Q256 395
262 420T300 468T376 492Q404 492 431 480T483 437T521 365T536 281Q536 212 507 151T439 60T364 20T287 9Q237 9 195 27T117 90T62 204T42 351Q42 455 76 552T152 691T234 745T321 759Q382 759 426 746T487 713T508 673Q509 665 509 661Q509 620 488 583T429 546Q422
546 418 547Z" />
<glyph unicode="7" glyph-name="seven" horiz-adv-x="556" d="M331 146Q334 135 334 125Q334 92 309 58T257 15T203 6Q171 6 146 18T108 60T89 120T82 181Q82 257 116 325T206 468T270 560Q272 563 265 568T252 574Q229 574 175 549T97 523Q80 523 66 529T27 560T3
630Q3 659 17 683T59 723T111 746T158 754Q182 754 231 742T294 728T318 726Q338 726 368 743T413 760Q425 760 436 756T464 738T481 674Q481 666 480 658T471 627T415 527T339 393T312 262Q312 207 331 146Z" />
<glyph unicode="8" glyph-name="eight" horiz-adv-x="630" d="M443 431Q436 426 436 419Q436 413 444 410Q502 380 530 334T558 233Q558 152 494 77T304 2Q261 2 211 15T119 60T60 141T43 233Q43 304 86 348T156 418Q163 428 135 447T87 502T66 576Q66 617 88
653T141 708T221 741T318 755Q378 755 427 733T499 675T529 619T535 579Q535 532 508 494T443 431ZM316 604Q294 607 273 597T244 567Q237 549 257 525T299 496Q312 493 328 510T349 541T354 562Q354 577 344 589T316 604ZM310 338Q298 343 276 325T244 290T235
259Q235 220 257 213T291 206Q339 206 350 227T361 259Q361 281 345 305T310 338Z" />
<glyph unicode="9" glyph-name="nine" horiz-adv-x="590" d="M430 93Q402 54 346 30T230 6Q183 6 143 21T80 64T57 119Q57 170 87 187T127 207T150 209Q167 209 200 205T236 200Q256 200 280 212T319 279T334 408Q334 470 328 502T302 549T259 563Q242 563 229
555T211 529T206 503Q206 481 218 465T253 446Q275 446 285 433T301 402T306 368Q306 327 277 299T222 267T184 263Q125 263 81 311T31 405T25 485Q25 612 90 683T254 755Q292 755 326 745T411 702T490 593T520 422Q520 327 495 238T430 93Z" />
<glyph unicode=":" glyph-name="colon" horiz-adv-x="345" d="M98 375Q81 385 72 402T63 438Q63 455 84 495T183 535Q215 535 250 520T286 463Q287 458 287 449Q287 405 255 379T176 353Q156 353 136 358T98 375ZM102 16Q67 37 67 78Q67 94 79 117T121 158T187
176Q219 176 245 165T280 140T290 104Q291 99 291 90Q291 46 259 20T180 -6Q160 -6 140 -1T102 16Z" />
<glyph unicode=";" glyph-name="semicolon" horiz-adv-x="345" d="M105 375Q88 385 79 402T70 438Q70 455 91 495T190 535Q222 535 257 520T293 463Q294 458 294 449Q294 405 262 379T183 353Q163 353 143 358T105 375ZM170 -122Q162 -128 149 -128Q133 -128 120
-119T106 -96Q106 -89 119 -66T132 -24Q132 -10 108 9T73 42T62 75Q62 96 76 116T110 145T147 160T183 166Q212 166 236 151T269 117T278 73Q278 62 275 31T247 -42T170 -122Z" />
<glyph unicode="&lt;" glyph-name="less" horiz-adv-x="600" d="M519 108Q509 108 499 112T482 119L94 288Q84 292 81 305T78 338Q78 361 80 372T93 389L482 558Q487 560 499 564T518 568Q527 568 532 552T538 522V492Q538 473 532 465T501 446L253 338L502 230Q523
221 530 212T537 185L538 155Q538 139 533 124T519 108Z" />
<glyph unicode="=" glyph-name="equal" horiz-adv-x="510" d="M430 403Q421 396 386 387T337 380Q298 387 234 387Q206 387 179 385T143 381T123 379Q115 379 105 380T69 384T30 403T16 444Q16 464 25 480T56 506Q63 513 75 519T112 526Q117 526 123 525T139 523T181
519T241 517Q305 517 337 521T378 526Q392 526 403 524T440 516Q449 509 458 494T467 463Q467 448 460 434T430 403ZM430 180Q421 173 386 164T337 157Q302 163 229 163Q163 163 148 160T125 156Q109 156 94 158T63 162T32 181T17 222Q17 263 56 283Q63 290 75
296T112 303Q117 303 123 302T139 300T181 296T241 294Q305 294 337 298T378 303Q392 303 403 301T440 293Q449 286 458 271T467 240Q467 225 459 211T430 180Z" />
<glyph unicode="&gt;" glyph-name="greater" horiz-adv-x="600" d="M533 288L144 119Q132 114 125 111T109 108Q99 108 95 124T90 155L89 185Q89 203 96 212T126 230L375 338L125 446Q103 456 97 464T90 492V522Q90 538 94 553T108 568Q117 568 126 565T144 558L532
389Q540 386 543 378T550 338Q550 319 547 306T533 288Z" />
<glyph unicode="?" glyph-name="question" horiz-adv-x="529" d="M238 302Q233 298 229 267T219 227Q204 211 182 211Q145 211 116 249Q95 279 95 312Q95 330 101 347T118 381Q198 445 279 509Q283 516 283 524Q283 538 271 550T244 562Q236 562 208 543T152 508T94
492Q73 492 57 502T26 543T11 604Q11 679 102 718T295 758Q339 758 375 734T440 662T468 561Q468 506 436 462T356 381T238 302ZM265 8Q246 -2 227 -8T184 -14Q163 -14 141 -8T101 20T83 67Q83 78 91 100T133 140T207 158Q236 158 257 151T291 121T304 75Q304 28
265 8Z" />
<glyph unicode="@" glyph-name="at" horiz-adv-x="770" d="M506 152Q491 148 471 148Q446 148 427 157T401 181T391 196Q385 191 371 179T332 156T283 145Q253 145 224 167T194 231Q194 257 204 280T236 329T341 378T440 415Q448 420 448 433Q448 442 442 447T424
448Q407 441 375 423T322 404Q304 404 284 417T264 463Q264 492 285 516T350 554T449 567Q467 567 488 565T535 559T579 528T593 474Q578 395 564 317Q564 293 572 256L576 258Q604 264 631 308T662 385T666 434Q666 513 605 578T419 644Q297 644 203 561T109 350Q109
215 189 136T399 57Q464 57 525 90Q576 126 628 163Q640 163 653 148T666 122Q664 103 571 45T375 -14Q230 -14 132 74T34 300Q34 310 34 320T44 416T166 608T435 715Q553 715 649 643T745 451V434Q744 427 744 424Q733 309 675 249T506 152ZM364 303Q361 301 350
291T338 270Q338 259 352 254Q372 246 397 270T420 319Q419 324 399 320T364 303Z" />
<glyph unicode="A" glyph-name="A" horiz-adv-x="760" d="M520 521Q515 523 509 524T497 525Q456 525 443 479T430 369Q427 351 443 340T467 335Q481 348 508 419T583 490Q589 490 609 487T645 462T659 415Q659 334 666 284T698 193T724 120Q724 77 692 46T613
15Q593 15 568 22T524 47T491 92T472 162T461 211T446 227T427 236Q416 236 414 227T402 100T352 -92T252 -176T184 -186Q149 -186 119 -168T78 -118T66 -60Q66 -19 132 34T205 105T221 179T231 274Q229 285 228 290T211 300Q182 264 140 264Q107 264 93 285T74
320T70 347Q70 380 92 406T140 439T181 447T220 449H237Q245 449 248 455T253 470Q268 514 283 558Q313 635 371 687T530 740Q567 740 612 731T684 690T710 617Q709 609 709 605Q703 562 667 537T579 511Q557 511 542 515T520 521Z" />
<glyph unicode="B" glyph-name="B" horiz-adv-x="660" d="M504 -139Q463 -164 413 -177T312 -190Q230 -190 163 -167T74 -108T52 -41Q52 -9 70 14T112 45T154 52Q180 52 232 37T310 22Q329 22 355 32T402 71T423 140Q423 167 415 187T394 221T367 234Q360 234
350 224T312 150T253 77T212 69Q166 69 129 104T91 181Q91 195 95 208T127 267T154 339Q154 350 154 361T153 385Q153 427 161 454T191 492T232 503Q244 503 258 500T294 487T328 428T362 378Q388 378 403 398T418 446Q418 472 404 496T372 530T339 542T313 545Q294
545 255 535T199 524Q171 524 147 538T112 572T101 616Q101 635 112 672T185 734T333 758Q385 758 426 747T511 704T585 613T615 491Q615 439 592 397T539 340T509 317Q509 311 515 305T548 283T601 225T629 134Q629 42 600 -28T504 -139Z" />
<glyph unicode="C" glyph-name="C" horiz-adv-x="570" d="M411 506Q401 504 395 504Q376 504 340 520T288 536Q277 536 255 522T215 460T197 354Q197 301 213 259T247 209T275 201Q289 201 334 218T405 235Q430 235 449 222T480 186T494 148T497 119Q497 60 445
21T321 -18Q166 -18 97 90T27 353Q27 405 33 450T60 564T145 690T308 747Q364 747 403 737T460 701T485 655T492 614Q492 576 471 546T411 506Z" />
<glyph unicode="D" glyph-name="D" horiz-adv-x="700" d="M344 321Q363 273 363 224Q363 160 330 118T240 76Q208 76 178 88T133 122T115 169Q115 195 119 220T138 269T157 312T163 412Q163 450 196 482T273 514Q297 514 319 503T349 479T358 449Q358 434 349
401T339 351Q339 334 344 321ZM534 -69Q491 -126 425 -157T281 -189Q208 -189 151 -167T68 -114T42 -42Q42 4 74 34T152 64Q169 64 191 57T241 45T291 40Q340 40 374 59T423 125T450 225T462 329Q462 405 433 460T362 528T310 543T286 544Q270 544 238 540T189
536Q163 536 143 542T103 566T77 599T69 634Q69 681 102 707T165 742T220 753T255 756T272 757Q372 757 459 710T585 585T640 436T657 294Q657 193 626 101T534 -69Z" />
<glyph unicode="E" glyph-name="E" horiz-adv-x="580" d="M353 554Q340 561 327 561Q306 561 291 546T276 510Q276 497 287 476T354 449T427 426T445 380Q445 341 410 332Q359 323 308 315Q255 299 255 246Q255 233 263 220T286 201T322 194Q344 194 390 213T456
232Q475 232 497 222T531 190T542 143Q542 137 542 131Q540 123 534 89T473 24T340 -6Q307 -6 276 -2T200 15T117 57T63 129T47 209Q47 268 80 312T172 391Q131 424 110 469T88 559Q88 606 109 645T169 706T250 738T336 750Q352 750 361 749T411 742T496 703T541
619Q541 573 516 550T449 527Q404 527 353 554Z" />
<glyph unicode="F" glyph-name="F" horiz-adv-x="650" d="M289 561Q270 557 240 535T194 505T154 497Q118 497 92 516T56 555T47 597Q47 607 48 614T61 657T119 724T223 755Q255 755 290 744T356 727T417 721Q445 721 489 731T535 741Q556 741 577 717T598 662Q598
643 592 629T565 596T517 571T450 564Q434 564 393 566T348 568Q316 568 289 561ZM545 263Q534 254 507 251T467 246Q454 246 446 246T437 238Q438 229 438 220Q441 193 443 165T445 108Q445 17 419 -48T334 -147T227 -180Q194 -180 166 -167T116 -124T94 -56Q94
-24 110 1T171 35T241 77T266 161Q266 194 258 239Q258 249 244 249Q235 249 223 237T186 224Q171 224 157 232T143 257Q146 272 146 275Q149 302 202 331T272 409T312 495T381 534Q392 534 414 529T448 509T461 474Q461 463 454 440T443 406T440 387Q440 375 449
375Q454 375 456 376T463 381T477 391T502 396Q516 396 534 388T562 363T573 325Q573 307 566 291T545 263Z" />
<glyph unicode="G" glyph-name="G" horiz-adv-x="580" d="M484 513Q458 493 428 493Q398 493 351 514T292 536Q289 536 286 536Q282 534 268 528T232 458T211 324Q211 289 215 265T228 224T252 194T282 180Q300 180 312 194T325 224Q326 230 326 243Q326 264 315
298T304 346Q304 361 309 372T332 396T371 416T419 423Q442 423 473 418T523 393T542 346Q542 336 522 290T502 199Q502 170 511 129T523 74T526 53Q526 29 506 11T455 -7Q445 -7 433 -5T406 8T383 26T370 33Q365 33 357 26T313 6T237 -6Q184 -6 140 20T73 107T39
229T27 346Q27 438 55 518T131 653T238 722T375 737Q418 737 459 710T512 649T524 594Q524 545 484 513Z" />
<glyph unicode="H" glyph-name="H" horiz-adv-x="810" d="M750 194Q763 178 770 159T777 123Q777 81 742 51T660 21Q640 21 591 35T525 99T488 256Q484 269 461 284Q454 285 448 287Q439 226 421 127T347 -77T197 -182Q157 -182 122 -165T74 -121T60 -64Q60 -29
100 11T173 88T231 175T256 285Q256 306 253 324T239 343Q233 343 221 328T178 292T118 271Q100 271 85 280T57 318T44 371Q44 425 101 451T224 477Q248 477 248 491Q248 498 245 506T199 556T154 614T150 647Q150 693 182 724T262 756Q267 756 273 756Q281 754
343 745T425 611T450 446T466 399T483 393Q488 393 491 397Q503 498 516 600Q542 719 597 736T667 754T683 755Q725 755 757 735T789 681Q789 676 785 658T735 535T688 365Q688 320 702 280T750 194Z" />
<glyph unicode="I" glyph-name="I" horiz-adv-x="550" d="M426 135Q408 80 347 44T218 8Q166 8 125 31T69 93T54 156Q54 198 87 219T164 240Q196 240 208 233T226 226Q239 226 249 237T259 275Q259 376 264 422T289 519T309 577Q309 587 295 587Q285 587 271 581Q252
567 219 548T151 529Q125 529 105 544T76 588T66 634Q66 682 105 714T199 746Q220 746 253 736T328 726Q361 726 397 734T470 750Q487 754 498 741T510 712Q510 703 487 674T446 583T429 451Q429 411 435 333T441 243Q441 213 438 186T426 135Z" />
<glyph unicode="J" glyph-name="J" horiz-adv-x="550" d="M486 141Q489 124 489 106Q489 2 408 -89T214 -180Q195 -180 175 -177T135 -168T99 -146T71 -108T58 -57Q58 -30 71 -8T102 24T134 36T166 38Q175 38 184 38T203 37Q225 37 240 42Q265 48 276 70T288 125Q288
133 287 144T270 234T254 379Q254 426 265 462T291 533T307 571Q307 581 298 582T288 581Q269 581 219 552T146 523Q128 523 112 530T80 553T59 582T53 610Q53 630 64 663T113 724T201 752Q209 752 215 752T260 743T349 734Q384 734 412 738T480 755Q493 759 509
748T519 718Q501 668 468 585T435 457Q435 427 450 342T486 141Z" />
<glyph unicode="K" glyph-name="K" horiz-adv-x="790" d="M637 530Q606 519 573 449T528 369Q560 344 570 317T608 181T673 27T711 -50Q711 -93 671 -125T578 -157Q565 -157 544 -153T498 -134T456 -91T431 -29T423 42Q423 65 425 104T428 152Q428 189 422 220T404
272T381 298T367 298Q360 273 359 186T317 66T244 21T175 8Q148 8 122 17T62 55T28 136Q28 179 56 201T116 228T163 235T187 242T196 255Q190 300 190 342Q190 479 254 589Q245 593 237 593Q225 593 214 581T190 553Q164 538 129 538Q89 538 61 558T33 619Q32 625
32 637Q32 696 72 717T185 739Q216 739 265 737T320 734Q327 734 351 740T387 746Q412 746 418 726T425 688Q425 652 392 588T359 488Q359 473 362 459T373 429Q422 453 436 548T480 699T623 755Q629 755 637 754T667 751T713 719T739 651Q739 607 712 577T637
530Z" />
<glyph unicode="L" glyph-name="L" horiz-adv-x="660" d="M528 492Q518 489 513 488T498 487Q468 487 428 508Q393 528 374 539T347 550Q335 550 324 543T315 529Q327 486 345 427T364 345Q364 326 353 295T335 243Q328 233 323 225T324 210Q329 203 344 199T374
195Q389 195 411 208T481 221Q517 221 542 206T571 164T576 120Q576 88 565 63T523 19T450 0Q414 0 383 10T308 39T254 57Q236 57 198 38T142 18Q130 18 118 22T93 37T74 64T67 98Q67 112 69 120T74 147T130 222T182 318Q182 332 181 339T164 387T134 472T120 556Q120
579 125 599T171 688T362 757Q377 757 392 756T444 749T524 721T583 661T598 594Q598 517 528 492Z" />
<glyph unicode="M" glyph-name="M" horiz-adv-x="980" d="M685 526Q620 483 595 348T549 95Q541 70 519 53T471 35Q443 35 419 76T386 196T371 358T347 476T319 523T299 536T276 537Q264 537 239 534T201 531Q185 531 174 533T143 546T110 581T97 636Q97 650 105
680T154 735T251 760Q271 760 292 757T359 739T447 654T488 509Q542 623 601 690T754 757Q791 757 829 746T890 705T912 640V630Q900 547 796 539T685 526ZM712 44Q684 56 665 84T645 145Q645 264 652 332T678 448T721 508T768 522Q801 522 814 491T827 431Q827
420 826 415Q826 412 822 386T818 339Q818 310 826 283T849 237T871 204T879 174T882 152Q882 106 847 69T764 32Q739 32 712 44ZM117 -141Q81 -141 65 -114T48 -46Q48 -13 57 12T110 95T155 198Q155 263 156 329T165 451T201 511T233 516T238 516Q266 516 288
497T310 450Q315 384 321 313T327 185Q327 33 282 -54T117 -141Z" />
<glyph unicode="N" glyph-name="N" horiz-adv-x="790" d="M623 275Q646 234 660 201T674 132Q674 119 672 99T638 52T563 24Q536 24 483 54T408 177Q398 262 386 355T335 483T277 521T231 526Q222 526 204 525T176 524Q142 524 121 533T84 573T69 632Q69 685 114
722T223 760Q329 760 381 706T456 563Q470 492 484 422Q487 398 492 398Q499 398 499 417Q504 524 510 632Q531 750 636 750Q646 750 653 750T685 746T733 713T755 656Q755 644 749 631T681 501T618 325Q618 305 623 275ZM337 27Q322 -52 296 -86T232 -142T175
-164Q132 -164 105 -138T70 -93T62 -53Q62 -35 68 -19T99 30T139 125T159 247T162 407Q162 460 178 482T223 505Q253 505 285 481T317 439Q324 395 335 314T346 146Q346 80 337 27Z" />
<glyph unicode="O" glyph-name="O" horiz-adv-x="590" d="M472 100Q410 -5 282 -5Q235 -5 192 9T126 48T68 131T33 286Q33 353 61 404T123 469T170 482Q193 482 211 472T229 444Q229 417 219 370T208 301Q208 277 215 255T240 216T280 198Q295 198 304 206Q339
232 354 271T370 357Q370 394 363 429T345 496T321 542T290 557Q283 557 276 554T237 528T190 502T165 498Q126 498 95 524T68 593Q68 662 117 704T213 753T280 760Q330 760 371 743T455 674T525 546T551 389Q551 315 530 241T472 100Z" />
<glyph unicode="P" glyph-name="P" horiz-adv-x="660" d="M436 213Q430 211 398 206T351 160Q350 31 335 -51T285 -156T236 -184T204 -190Q185 -190 153 -178T98 -133T74 -65Q74 -40 105 15T151 174T167 417Q167 456 194 484T257 513Q276 513 293 505T325 475T342
402T353 338T370 326Q381 326 388 335T411 369Q432 396 432 434Q432 462 420 483T384 518T338 535T294 540Q272 540 217 531T139 522Q124 522 114 523T96 531T70 564T52 625Q52 655 68 680T122 722T212 750T323 760Q390 760 449 734T546 658T601 561T619 464Q619
380 569 312T436 213Z" />
<glyph unicode="Q" glyph-name="Q" horiz-adv-x="600" d="M402 14Q389 10 389 1Q389 -9 407 -11Q416 -11 435 -8T465 -5Q489 -5 504 -15T527 -49T536 -91Q536 -124 517 -147T467 -180T413 -190Q349 -190 300 -142T240 -51T224 -5T193 2T127 39T61 135T37 276Q37
343 63 395T125 462T180 478Q204 478 221 468T242 440T245 415Q245 393 231 341T216 270Q216 240 222 224T240 207Q247 207 252 211T267 228T290 240Q292 240 302 238T320 220Q323 211 327 203Q335 200 337 200Q342 200 346 213Q359 241 365 276T372 357Q372 427
354 480T306 538Q291 540 245 517T171 494Q154 494 138 500T105 523T78 560T69 602Q69 632 85 661T130 711T197 746T274 760Q308 760 338 752T430 706T525 586T560 398Q560 365 558 334T548 243T504 125T402 14Z" />
<glyph unicode="R" glyph-name="R" horiz-adv-x="610" d="M470 348Q451 336 451 325Q451 320 454 316T480 291T514 201T532 116T577 63T615 -16Q615 -27 612 -52T578 -104T499 -131Q425 -131 388 -68T350 72Q350 81 353 111T357 158Q357 180 353 196T334 230Q329
236 320 230T310 217Q310 132 278 66T180 0Q164 0 150 3T112 17T77 53T64 106Q64 122 69 138T84 177T100 210T117 240T129 272Q129 277 127 294T122 328T115 364T111 394Q111 416 130 454T200 492Q216 492 229 486T258 460T279 425T286 391Q289 389 295 381T311
375Q340 380 357 396T379 430T383 453Q383 471 374 487T348 509T309 518T282 520Q260 520 211 515T150 509Q112 509 89 523T57 568T48 618Q48 683 109 714T262 745Q340 745 410 724T522 639T565 506Q565 457 537 415T470 348Z" />
<glyph unicode="S" glyph-name="S" horiz-adv-x="560" d="M437 484Q416 484 362 514T296 544Q283 544 276 537T263 510Q260 499 273 479T346 446T471 362T536 207Q536 173 518 120T428 20T268 -27Q209 -27 156 -4T66 58T29 132Q29 148 33 161T51 195T89 233T145
249Q153 249 166 247T224 214T291 182Q312 184 325 197T339 229Q339 241 326 260T225 325T115 405T83 471T72 535Q72 625 143 687T314 749Q368 749 412 736T483 693T521 638T532 587Q532 544 506 514T437 484Z" />
<glyph unicode="T" glyph-name="T" horiz-adv-x="580" d="M376 541Q361 543 347 545T321 547Q286 547 270 532Q238 505 211 492T157 479Q113 479 85 516T56 591Q56 625 73 653T133 708T231 735Q265 735 298 721T361 700T418 692Q453 692 476 699T505 707Q530 707
549 686T569 636Q569 581 528 559T430 537Q414 537 403 538T376 541ZM427 254Q429 247 429 239T429 224Q429 190 419 156T385 81T318 10T220 -20Q166 -20 116 14T65 104Q65 132 77 155T108 188T182 213T242 276T252 388Q269 509 359 530Q370 533 391 520T418 494T424
454Q424 437 422 400T419 347Q419 313 420 299T427 254Z" />
<glyph unicode="U" glyph-name="U" horiz-adv-x="650" d="M528 291Q530 268 563 203T597 109Q597 59 565 26T481 -7Q472 -6 467 -6Q423 -2 396 22T353 75T331 103Q324 103 306 73T266 20T201 -2Q182 -2 149 4T91 44T63 105T59 145T58 163Q58 197 71 283T84 400Q84
442 74 480T39 551T14 622Q14 671 48 709T128 747Q143 747 185 732T252 670T277 554Q277 520 269 443T260 339Q260 302 263 285T273 247T296 227Q309 227 325 244T345 274T353 347T357 451V463Q357 508 350 525T337 566T332 609Q332 692 377 719T460 746Q501 746
531 727T566 686T570 654T570 636Q570 595 548 496T526 334Q526 323 527 311T528 291Z" />
<glyph unicode="V" glyph-name="V" horiz-adv-x="600" d="M453 90Q425 50 381 28T285 5Q238 5 176 33T87 122T61 274Q61 300 63 358T65 420Q65 448 63 473T57 512T26 570T-1 635Q-1 687 30 722T111 758Q136 758 161 748T203 724T230 682T245 612T251 522Q251 487
246 404T240 293Q240 271 247 253T268 229T290 224Q323 224 333 250Q361 307 361 375Q361 435 341 497T297 603T274 664Q274 701 312 730T400 759Q433 759 463 741T528 645T563 434Q563 339 535 253T453 90Z" />
<glyph unicode="W" glyph-name="W" horiz-adv-x="820" d="M720 134Q700 81 648 48T536 15Q520 15 492 20T442 61T400 130Q370 78 327 46T228 14Q203 14 176 21T128 41T88 87T61 163T53 260Q53 289 55 339T58 400Q58 434 57 448T51 487T21 548T-7 598T-11 629Q-11
677 19 712T94 748Q107 748 151 734T221 672T247 555Q247 524 240 458T233 358Q233 326 235 308T244 271T266 252Q277 252 288 261T304 287T317 400T368 504T416 510Q484 510 494 406T513 279T540 256Q552 256 562 264T576 296T582 343T585 393Q585 458 568 491T504
553T443 601T429 645Q429 681 456 713T512 752T563 759Q619 759 665 726T731 636T760 523T770 407Q770 337 758 272T720 134Z" />
<glyph unicode="X" glyph-name="X" horiz-adv-x="670" d="M450 464Q430 435 430 400Q430 363 450 328T530 258T607 202T630 161T637 125Q637 85 608 55T549 17T514 8T496 7Q431 7 397 54T356 127T339 153Q331 153 324 138Q306 106 288 74Q268 44 235 28T162 12Q131
12 108 23T69 59T46 105T38 146Q38 195 140 265T248 359T253 395Q253 443 202 483T102 561Q69 594 69 638Q69 664 81 689T113 728T157 751T203 760Q223 760 240 755T277 735T308 704T329 667T344 647Q350 647 358 661Q362 671 372 691T417 734T493 758Q514 758
532 753T573 733T604 698T614 649Q614 634 612 625T606 589T533 523T450 464Z" />
<glyph unicode="Y" glyph-name="Y" horiz-adv-x="680" d="M451 -44Q435 -103 393 -140T306 -183T247 -189T224 -190Q172 -190 132 -171T78 -115T63 -49Q63 -18 77 4T111 34T145 41Q161 41 192 33T238 25Q248 25 267 31T295 70Q300 95 306 121Q310 132 310 141Q310
150 305 156T253 180T184 231T139 378T88 528T46 587T33 641Q33 684 63 713T140 742Q154 742 211 730T290 599Q300 497 306 444T320 384T336 375Q349 372 353 381T358 404Q365 485 372 566Q386 653 421 689T484 740T547 755Q567 755 593 748T635 716T650 668Q650
653 608 587T537 418T490 171T451 -44Z" />
<glyph unicode="Z" glyph-name="Z" horiz-adv-x="690" d="M345 244Q340 235 355 230T380 228Q395 232 438 251T510 270Q526 270 541 266T580 246T618 206T633 151Q633 110 606 74T541 23T463 9Q426 9 385 19T311 42T262 55Q241 55 196 32T147 7T136 6Q115 6 97
19T76 45T74 69T73 86Q73 169 110 223T234 372T346 531Q347 533 343 535T332 537Q321 537 305 526T263 504T207 493Q179 493 156 505T116 545Q99 576 99 610Q99 660 137 699T212 745T266 752Q302 752 362 734T447 715Q469 715 490 721T532 741T568 754Q593 754
611 730T629 677Q629 665 619 625T571 533T455 392T345 244Z" />
<glyph unicode="[" glyph-name="bracketleft" horiz-adv-x="524" d="M423 709Q413 709 389 711T362 713Q318 713 307 701T296 650V628V-17Q296 -74 304 -88T362 -102Q373 -102 397 -100T423 -98Q449 -98 460 -108T472 -133Q472 -174 431 -182T279 -191H231Q150
-191 127 -164T104 -17V628Q104 759 132 780T279 802Q389 802 430 794T472 744Q472 726 457 718T423 709Z" />
<glyph unicode="\" glyph-name="backslash" horiz-adv-x="510" d="M382 -56Q370 -45 358 -31T339 1T255 183T116 468T43 602T22 649T15 695Q22 739 41 756T84 774Q96 774 104 771T118 767T139 742T165 688T241 520T380 237T469 75T489 42T495 14Q495 6 495 4T492
-2Q492 -31 472 -52T424 -74Q402 -74 382 -56Z" />
<glyph unicode="]" glyph-name="bracketright" horiz-adv-x="524" d="M420 -17Q420 -148 392 -169T245 -191H203Q123 -191 88 -181T52 -133Q52 -115 67 -107T101 -98Q111 -98 135 -100T162 -102Q210 -102 219 -87T228 -17V628V650Q228 688 217 700T162 713Q151
713 127 711T101 709Q75 709 64 719T52 744Q52 785 93 793T245 802Q365 802 392 781T420 628V-17Z" />
<glyph unicode="^" glyph-name="asciicircum" horiz-adv-x="598" d="M483 158H453Q435 158 426 165T408 194L299 443L191 194Q182 172 173 165T146 158H116Q97 158 83 162T69 177Q69 187 73 197T80 213L249 601Q254 612 267 614T299 617Q318 617 331 614T350 601L519
213Q521 208 525 196T529 177Q529 167 514 163T483 158Z" />
<glyph unicode="_" glyph-name="underscore" horiz-adv-x="500" d="M499 -138H-1V-48H499V-138Z" />
<glyph unicode="`" glyph-name="grave" horiz-adv-x="368" d="M198 583Q130 583 75 618T16 676Q12 700 40 708T100 717Q109 717 119 711T156 685T203 652Q228 631 232 608Q235 593 225 588T198 583Z" />
<glyph unicode="a" glyph-name="a" horiz-adv-x="560" d="M539 122Q545 110 545 96Q545 71 528 48T494 19T458 7T422 2Q393 2 368 15T331 48T314 67Q312 67 308 63T291 45T249 17T188 2Q151 2 118 24T70 75T55 136Q55 163 63 186T92 240T205 293T315 332T334 361Q334
372 328 380T310 389Q303 389 298 387T251 358T182 330Q157 330 136 343T104 378T93 421Q93 448 111 475T183 520T305 537Q338 537 356 536T412 528T480 488T509 419Q509 391 504 346T499 278Q499 243 508 206T539 122ZM256 202Q253 201 242 190T230 165Q230 149
243 144T265 139Q286 139 306 162T326 210Q326 214 324 219T313 225Q299 225 283 220T256 202Z" />
<glyph unicode="b" glyph-name="b" horiz-adv-x="510" d="M411 66Q384 39 340 23T250 7Q195 7 148 30T77 96T45 181T36 269Q36 307 40 377T45 455Q45 489 42 511T22 567T3 615T-1 640Q-1 683 28 711T102 740Q117 740 131 737T171 721T210 677T223 602Q223 592
222 572T221 542Q221 514 228 494Q234 494 240 494Q247 498 266 515Q262 512 260 509Q272 522 292 528T339 535Q362 535 387 530T433 500T470 423T487 290Q487 222 469 164T411 66ZM259 373Q246 375 235 361T224 329L221 223Q221 206 232 193T259 177Q294 172 298
212V331Q298 346 287 358T259 373Z" />
<glyph unicode="c" glyph-name="c" horiz-adv-x="480" d="M374 333Q363 329 350 329Q331 329 295 347T257 365Q238 366 228 343T218 284Q218 235 230 206T265 176Q273 176 291 195T351 215Q388 215 406 193T429 155T435 125Q435 108 429 94T410 58T360 21T282
5Q257 5 231 10T155 33T69 113T34 255Q34 307 48 358T86 451T158 516T264 540Q303 540 347 529T417 484T442 408Q442 382 423 363T374 333Z" />
<glyph unicode="d" glyph-name="d" horiz-adv-x="600" d="M536 97Q542 65 508 37T452 6T421 3Q388 3 361 23T314 78Q296 46 262 25T188 4Q162 4 140 14T95 58T56 146T40 260Q40 330 61 393T119 493T201 531Q229 531 256 517T302 473Q312 472 315 480T319 497Q319
527 294 574T269 642Q269 660 276 674T314 714T392 740Q409 740 425 736T464 718T496 673T506 597Q506 585 506 574T505 551Q505 299 509 253T536 97ZM276 366Q261 368 251 354T241 321L236 218Q236 201 247 187T274 171Q290 169 301 178T312 206L313 325Q313 361
276 366Z" />
<glyph unicode="e" glyph-name="e" horiz-adv-x="510" d="M228 193Q212 189 212 169Q212 161 225 153T254 145Q264 145 272 148T290 158Q315 180 335 196T376 212Q403 212 423 192T448 158T453 128Q453 99 432 68T368 18T276 -2Q218 -2 167 23T87 93T45 184T31
275Q31 340 56 397T138 500T276 546Q299 546 321 542T378 523T438 468T462 383Q462 353 448 318T366 245T228 193ZM212 372Q195 352 195 327Q195 302 211 297Q233 292 262 318T292 372Q292 383 284 395T259 407Q237 407 216 381Q214 376 212 372Z" />
<glyph unicode="f" glyph-name="f" horiz-adv-x="420" d="M229 588Q222 592 216 583T209 574Q212 560 239 546T272 519T317 505T364 500Q375 493 375 476Q375 465 371 454T363 436T348 428T327 427Q304 427 296 427T281 426Q281 331 272 198T263 5V-14Q263 -84
241 -135T145 -187Q124 -187 96 -180T58 -158T40 -121T33 -90Q33 -67 62 -20T91 50Q99 126 101 217T104 420Q104 425 97 426T73 428H60Q51 428 43 428T29 438T22 466Q22 489 30 495T69 504T99 522Q97 536 88 573T79 628Q79 645 85 661T109 698T160 735T229 751Q265
751 293 734T334 689T347 643Q347 614 329 594T280 573Q267 573 255 576T229 588Z" />
<glyph unicode="g" glyph-name="g" horiz-adv-x="570" d="M487 72Q487 48 496 7T505 -50Q505 -67 501 -83T481 -130T400 -183T260 -206Q189 -206 134 -184T67 -130T55 -85Q55 -50 86 -30T167 -10Q195 -10 224 -16T274 -31T302 -40Q318 -40 318 -13Q318 3 314 23T308
53Q308 83 298 83Q292 83 267 53T186 22Q177 22 166 23T128 29T77 67T53 138Q53 166 48 238T42 331Q42 394 59 440T113 508T186 531Q217 531 244 516T284 481T307 460Q314 460 319 465T341 503T426 535Q441 535 453 533T484 523T517 492T530 448Q530 438 516 403T495
304T487 150V72ZM271 366Q256 368 245 350T234 313L236 216Q236 189 242 178T268 163Q284 161 296 173T308 204L307 323Q308 340 298 351T271 366Z" />
<glyph unicode="h" glyph-name="h" horiz-adv-x="580" d="M526 358Q526 335 525 312T523 265Q523 240 528 208Q543 163 551 138T560 104Q560 68 534 44T484 16T446 12Q420 12 400 20T364 52T342 100T335 154Q335 179 343 228T351 302Q351 330 344 353T315 377Q305
377 292 365T269 326T259 267Q259 239 268 179T277 102Q277 88 275 68T244 29T176 10Q162 10 128 16T74 49T53 110Q53 131 58 149T68 181Q68 258 75 354T90 559Q90 570 82 588T65 622T57 657L59 674Q66 704 95 726T164 749Q170 749 186 747Q219 740 239 729T266
697T276 655T279 616Q279 595 274 547T269 481Q269 470 277 470Q282 470 289 474T317 499T363 531T416 543Q428 543 453 537T502 505T528 459T531 429Q531 414 529 389T526 358Z" />
<glyph unicode="i" glyph-name="i" horiz-adv-x="360" d="M271 583Q236 564 202 564Q165 564 137 579T101 609T93 642Q93 656 98 680T132 724T200 744Q236 744 263 729T301 696T312 657Q312 608 271 583ZM280 169Q292 151 297 136T302 109Q302 96 301 87T296 58T263
20T195 2Q177 2 153 8T109 32T83 74T76 115T74 156Q74 183 79 246T85 330Q85 354 83 375T75 420T69 454Q69 488 99 508T172 529Q191 529 210 525T247 512T274 483T282 446Q277 398 273 343T268 249Q268 189 280 169Z" />
<glyph unicode="j" glyph-name="j" horiz-adv-x="380" d="M118 603Q98 614 88 631T77 668Q77 702 108 729T186 757Q222 757 251 741T288 711T297 680Q297 670 294 658T281 627T249 594T196 581Q157 581 118 603ZM278 8Q317 -32 317 -77Q317 -114 293 -142T230
-180Q212 -186 193 -186Q151 -186 121 -163T86 -93T81 7Q81 70 84 143T93 302Q93 337 83 357T66 399T60 444Q60 459 62 467T64 479Q72 510 101 529T168 548Q209 548 233 530T268 495T280 463T283 423T284 374Q284 311 277 200T269 65Q269 17 278 8Z" />
<glyph unicode="k" glyph-name="k" horiz-adv-x="600" d="M418 351Q411 351 406 344T401 328Q401 321 411 304T474 237T544 161T561 107Q561 71 534 44T478 11T442 6Q386 6 348 54T310 166Q310 182 313 197Q312 200 304 209T291 218Q285 218 282 207Q269 181 268
106T221 18T170 4T155 3Q119 3 83 22T37 76T27 133Q27 167 49 179T75 209T81 273T83 374Q83 419 82 462T79 549Q66 574 56 600T45 649Q45 676 61 697T103 727T138 737T160 739Q197 739 226 721T263 678T273 633T275 595Q275 579 273 548T271 502Q271 483 273 466T280
435T289 422Q294 422 299 434T318 470T368 520T447 547Q453 547 459 547T492 539T539 505T560 443Q560 403 537 381T488 355T418 351Z" />
<glyph unicode="l" glyph-name="l" horiz-adv-x="340" d="M273 226Q274 218 285 193T302 146T308 109Q308 73 287 45T239 11T198 5Q157 5 125 26T86 83T74 168T70 256Q70 309 73 372T81 509Q81 539 80 546T60 572T41 639Q41 682 68 714T144 747Q170 747 191 740T225
729Q264 710 264 654V482Q264 427 265 357T273 226Z" />
<glyph unicode="m" glyph-name="m" horiz-adv-x="850" d="M798 199Q819 152 830 124T840 76Q836 40 804 20T730 -1Q685 -1 653 21T607 75T593 142Q593 168 603 228T614 312Q614 327 606 338T589 353T577 357T572 357Q553 357 544 333Q534 313 530 292T526 246Q526
225 529 205T536 165T543 124T546 89Q546 65 539 47T506 14T441 -2Q434 -2 426 -2T393 3T343 34T318 90Q318 95 326 128T342 203T350 287Q350 296 349 308T347 337T314 354Q291 354 284 334T275 295T272 248Q272 218 276 163T281 101Q281 79 278 54T246 14T180
-2Q163 -2 125 5T70 36T54 125Q54 158 62 168T77 188Q83 210 83 255Q83 292 79 313T57 361T40 416Q40 425 43 449T78 498T161 524Q175 524 196 522T233 509T260 476T278 454Q284 454 308 481T359 519T414 530Q440 530 472 520T504 499Q511 488 524 469T548 460Q587
497 613 512T673 528Q696 528 729 523T777 491T793 434Q793 385 792 350T790 281Q790 235 798 199Z" />
<glyph unicode="n" glyph-name="n" horiz-adv-x="610" d="M557 194Q566 170 576 144T587 101Q587 87 584 76T568 46T530 15T475 2Q443 2 416 15T375 52T355 105T349 160Q349 189 356 248T363 329Q363 345 355 363T334 379Q302 373 290 346T277 274Q277 245 279
226T287 178T297 126T301 89Q301 78 294 57T258 17T191 -1Q160 -1 126 13T77 49T63 100Q63 123 69 144T87 196T100 260Q100 301 85 344T61 410T53 441Q53 472 80 495T141 526T194 534Q228 534 250 514Q269 490 279 478T299 466Q304 466 310 474T329 496T373 523T436
537Q472 537 496 526T534 491T550 454T553 427T554 395Q554 372 550 331T546 270Q546 249 548 233T557 194Z" />
<glyph unicode="o" glyph-name="o" horiz-adv-x="520" d="M127 30Q82 64 62 116T41 233Q41 309 66 379T121 478T189 522T269 537Q310 537 366 516T456 431T490 285Q490 227 475 172T437 80T363 16T252 -11Q218 -11 188 -2T127 30ZM271 371Q254 373 240 360T225
320L222 203Q222 178 233 163T262 144Q282 141 295 166T308 215L307 316Q307 337 298 353T271 371Z" />
<glyph unicode="p" glyph-name="p" horiz-adv-x="580" d="M465 33Q448 15 432 8T397 1Q361 1 322 33Q306 48 291 64Q284 77 278 77Q274 77 269 64T264 31Q264 12 275 -33T287 -93Q287 -107 286 -112T274 -139T236 -179T175 -198Q149 -198 117 -183T67 -143T48
-89Q48 -75 54 -61T68 -25T80 24T86 92T88 171Q88 218 87 258T85 338Q85 350 70 380T54 442Q54 455 57 477T91 518T168 537Q186 537 208 533T238 525T273 481Q274 469 283 469Q288 469 297 477T317 499T353 526T407 539Q428 539 445 532T486 499T527 414T545 290Q545
211 524 142T465 33ZM323 371Q304 371 291 360T278 329L276 218Q276 191 285 180T315 165Q325 163 338 176T352 206L353 325Q353 371 323 371Z" />
<glyph unicode="q" glyph-name="q" horiz-adv-x="575" d="M507 353Q495 308 491 242T486 106V27Q486 -15 501 -56Q509 -71 517 -87Q520 -99 520 -109Q520 -150 486 -178T414 -206Q369 -206 334 -193T289 -150T279 -96Q279 -75 290 -27T302 44Q301 56 295 62T285
65Q268 38 238 21T174 4Q124 4 97 44T55 138T41 250Q41 320 61 386T117 495T203 538Q231 538 255 521T288 483T303 462Q311 462 320 472T347 507T426 532Q438 532 451 531T487 520T524 484T543 427Q543 415 526 391T507 353ZM270 368Q258 370 249 360T240 334L235
219Q235 201 243 183T267 163Q281 162 293 177T306 208L307 327Q307 342 295 354T270 368Z" />
<glyph unicode="r" glyph-name="r" horiz-adv-x="490" d="M396 319Q369 297 337 297Q321 297 304 304T271 326Q264 331 258 331Q247 331 244 321T240 301T239 279Q239 246 260 176T282 90Q282 84 278 58T245 14T180 -4Q146 -4 117 9T75 46T56 99T49 165Q49 190
52 219T59 264T63 293Q63 319 44 373T24 454Q24 494 52 515T124 537Q147 537 167 532T208 514Q218 501 229 488Q233 486 238 486Q246 486 252 494T263 509Q286 533 323 533Q361 533 393 509T429 457T434 410Q434 382 426 359T396 319Z" />
<glyph unicode="s" glyph-name="s" horiz-adv-x="550" d="M305 375Q293 380 286 380Q260 380 260 359Q260 351 268 344Q355 309 430 279T505 173Q505 161 497 115T429 32T282 -5Q245 -5 208 2T132 22T79 59T59 96T55 126Q55 157 73 181T111 210T142 216Q171 216
223 191T288 161T308 157Q318 157 323 164T328 180Q328 187 325 192Q231 231 168 261T94 329T82 391Q82 438 107 474T167 522T235 541T296 548Q335 548 373 537T445 499Q484 466 484 421Q484 404 474 386T446 358T402 348Q357 348 305 375Z" />
<glyph unicode="t" glyph-name="t" horiz-adv-x="400" d="M279 405Q275 400 274 393Q275 385 274 374T269 327T266 257Q266 243 266 233T272 205T290 160T304 112Q304 94 298 67T262 17T191 -5Q161 -5 129 12T80 64T64 143Q64 175 77 256T90 362Q90 386 87 397T71
410T42 416Q30 413 18 424T6 462Q6 472 7 483T27 494Q39 493 47 493Q59 493 71 494T91 497T98 504Q98 510 88 539T67 595T57 643Q57 665 69 690T109 732T168 749Q192 749 213 739T251 710T272 669T278 619Q278 600 274 564T270 526Q270 491 308 491Q317 491 331
494Q348 497 355 485T363 450Q363 436 362 430Q362 415 322 412T279 405Z" />
<glyph unicode="u" glyph-name="u" horiz-adv-x="580" d="M458 0Q444 -3 432 -3Q402 -3 375 15T334 55T314 76Q306 76 293 54T244 15T168 -3Q135 -3 111 9T77 43T62 90T57 141Q57 165 63 219T70 282Q70 305 54 337T35 390T31 456Q31 487 63 509T137 531Q173 531
201 510T240 457T252 379Q252 358 247 307T242 238Q242 216 243 207T250 179T275 161Q288 161 300 169T322 197T332 253Q332 283 314 351T296 437Q296 444 299 467T333 512T402 534Q442 534 469 508T507 452T517 381Q517 367 514 326T510 264Q510 237 513 218T529
170T546 125T551 92Q551 86 546 66T519 28T458 0Z" />
<glyph unicode="v" glyph-name="v" horiz-adv-x="540" d="M286 12Q279 8 269 6T247 4Q217 4 190 17T149 62T112 193T84 303T45 354T4 418T-3 454Q-3 491 25 517T95 544Q126 544 172 517T236 384T263 262T277 247Q282 247 287 252T296 270T301 319Q301 354 296
389Q289 399 279 418T269 462Q269 485 280 503T312 533T346 548T372 551Q419 551 454 517T489 435Q489 331 432 196T286 12Z" />
<glyph unicode="w" glyph-name="w" horiz-adv-x="700" d="M535 30Q518 -2 471 -2Q451 -2 436 4T406 29T380 86T366 132Q366 152 353 152Q345 152 343 141Q335 129 322 78T285 14T232 0Q203 0 181 11T143 54T117 143T92 270Q50 354 9 439Q9 453 15 475T48 514T108
532Q140 532 168 519T211 480T229 431T240 366T250 291Q250 259 259 259Q266 259 273 272T281 296Q289 339 297 383Q313 419 347 419Q366 419 387 409T414 395T420 384Q420 380 419 370T418 353Q418 331 419 322T427 283Q429 275 435 260T450 244Q457 244 462 256T470
284T474 314Q474 339 455 393T436 460Q436 480 446 495T486 525T554 541Q585 541 608 529T643 486T654 413Q654 325 615 214T535 30Z" />
<glyph unicode="x" glyph-name="x" horiz-adv-x="600" d="M403 306Q396 299 396 278Q396 257 402 240T420 220Q448 218 493 211T551 162T564 94Q564 70 556 53T518 19T450 1Q416 1 387 19T337 70Q321 110 308 110Q299 110 295 81T256 29T178 7Q160 7 152 8T119
18T82 56T68 121Q68 195 132 215Q176 221 220 228Q230 231 235 245T240 279Q240 297 236 308T194 325T123 355T89 420Q89 445 103 476T144 523T207 539Q231 539 255 530T295 497Q304 478 313 461T331 444Q339 444 339 464Q339 498 366 518T434 539Q481 539 509
518T547 474T557 426Q557 420 556 414T549 375T479 332T403 306Z" />
<glyph unicode="y" glyph-name="y" horiz-adv-x="580" d="M478 310Q447 276 432 230T397 84T365 -68T294 -168T174 -215Q142 -215 112 -202T54 -162T26 -94Q26 -71 38 -46T66 -11T116 6Q126 8 148 -3T179 -14Q190 -14 195 -4T201 34Q198 64 173 154T131 277Q85
324 57 363T28 439Q28 464 39 488T77 526T134 540Q162 540 202 525T258 455Q270 404 277 372T290 340Q292 340 295 350T299 373Q314 447 349 495T449 543Q464 543 491 538T539 505T560 447Q560 441 557 424T539 384T478 310Z" />
<glyph unicode="z" glyph-name="z" horiz-adv-x="600" d="M356 236Q339 220 339 213Q339 206 352 206Q359 206 363 207Q363 208 363 209Q375 209 398 212T428 215Q450 215 470 209T511 183T544 142T556 97Q556 58 528 30T464 2Q400 2 322 27T221 51Q211 48 180
28T136 7Q125 7 113 12T84 30Q67 48 67 71Q67 123 147 195T265 300T303 343Q303 350 294 350Q267 346 255 346T235 345Q198 345 170 354T127 387T112 439Q112 478 140 508T211 538Q240 538 295 518T390 498Q412 498 440 515T485 532Q500 532 527 520T555 475Q555
421 490 359T356 236Z" />
<glyph unicode="{" glyph-name="braceleft" horiz-adv-x="524" d="M384 728Q359 728 350 716T341 680V444Q341 382 322 351T246 312Q302 303 321 271T341 177V-69Q341 -117 384 -117Q401 -117 413 -127T425 -154Q425 -172 414 -181T384 -191H291Q221 -191 185
-158T149 -50V224Q149 272 106 272Q88 272 77 282T65 311Q65 329 77 339T106 349Q131 349 140 361T149 398V661Q149 734 185 768T291 802H384Q407 802 416 790T425 765Q425 747 414 738T384 728Z" />
<glyph unicode="|" glyph-name="bar" horiz-adv-x="496" d="M248 -177Q209 -177 199 -167T189 -128V-112V720Q189 761 196 773T248 785Q291 785 299 773T307 720V-112V-128Q307 -157 297 -167T248 -177Z" />
<glyph unicode="}" glyph-name="braceright" horiz-adv-x="524" d="M418 272Q393 272 384 260T375 224V-50Q375 -123 339 -157T233 -191H140Q117 -191 108 -179T99 -154Q99 -136 110 -127T140 -117Q165 -117 174 -105T183 -69V177Q183 239 202 270T278 309Q223
319 203 351T183 444V680Q183 728 140 728Q123 728 111 738T99 765Q99 783 110 792T140 802H233Q303 802 339 769T375 661V398Q375 373 384 361T418 349Q441 349 450 337T459 311Q459 297 450 285T418 272Z" />
<glyph unicode="~" glyph-name="asciitilde" horiz-adv-x="568" d="M372 282Q329 282 283 310T209 339Q186 339 171 324T156 284H63Q63 351 101 394T202 437Q239 437 284 409T359 381Q383 381 394 393T406 434H495Q495 362 466 322T372 282Z" />
<glyph unicode="&#xa0;" glyph-name="nbspace" horiz-adv-x="260" />
<glyph unicode="&#xa1;" glyph-name="exclamdown" horiz-adv-x="351" d="M161 585Q118 585 92 610T65 670Q65 690 87 725T174 761Q211 761 246 737T281 672Q281 656 270 635T231 601T161 585ZM60 67Q60 144 67 220T92 394T130 514T176 535Q195 535 211 520T255
405T282 94Q282 47 244 21T157 -6Q117 -6 89 13T60 67Z" />
<glyph unicode="&#xa2;" glyph-name="cent" horiz-adv-x="470" d="M354 406Q343 402 332 402Q312 402 277 419T240 437Q224 438 216 420T208 373Q208 348 213 322T228 275Q235 257 258 257Q266 257 269 262Q298 294 338 294Q374 294 392 272T416 234T422 204Q422
191 419 180T403 147T362 110T298 95Q292 94 292 90Q292 78 288 57T278 16Q271 -4 249 -4Q233 -4 215 7T193 28T187 52T184 87Q184 102 186 109L183 113Q106 140 70 205T34 352Q34 396 44 439T76 521T139 581T236 603Q241 626 241 638Q239 651 241 658T256 697Q258
699 273 699Q293 699 309 692T329 674T337 640T342 604Q342 594 340 591T336 587Q371 573 392 542T414 478Q414 452 397 434T354 406Z" />
<glyph unicode="&#xa3;" glyph-name="sterling" horiz-adv-x="630" d="M531 469Q518 453 508 448T465 433Q456 429 446 429Q424 429 393 458T345 488Q326 488 315 472T303 449Q303 436 327 396T352 348T379 339T412 335T423 328T428 314Q430 300 423 286T402 272Q389
272 376 272T356 267T337 225T314 177Q333 166 355 166Q374 166 417 184T476 202Q502 202 525 183Q539 169 547 152T555 116Q555 65 530 40T482 7T435 -2Q404 -2 343 18T251 39Q228 39 214 34T168 13T119 -3Q105 -3 94 2Q60 13 55 37T49 73Q49 122 122 165T196
268Q196 269 153 272T110 301Q112 317 117 327T134 337H147Q169 337 171 340Q178 347 164 359Q147 381 139 411T130 474Q130 516 151 558T226 635T347 670Q450 670 494 646T548 593T558 545Q558 522 552 503T531 469Z" />
<glyph unicode="&#xa5;" glyph-name="yen" horiz-adv-x="690" d="M498 394H589H603Q620 394 626 388T633 358Q633 330 625 325T589 320H468L448 261H589H603Q620 261 626 255T633 225Q633 197 625 192T589 187H425Q416 157 405 115T381 17T343 -90T278 -165T207
-190Q188 -190 161 -178T115 -140T97 -83Q97 -48 111 -29T168 40T220 125Q242 165 242 177Q242 183 235 183Q221 181 207 179L178 187H61Q33 187 26 191T18 225Q18 249 24 255T46 261H61H119Q114 289 113 298T111 320H61Q33 320 26 324T18 358Q18 382 24 388T46
394H61H107L104 478Q104 497 82 534T55 580T48 603T45 629Q45 679 82 714T172 750Q184 750 191 748T228 740T278 697T299 600Q299 568 291 495T282 403L285 394H325L330 411Q351 492 373 573Q403 661 443 697T515 747T580 762Q601 762 623 755T658 730T670 689Q670
678 667 669T636 624T567 524T498 394Z" />
<glyph unicode="&#xa6;" glyph-name="ESC" horiz-adv-x="510" d="M25 79V529H475V79H25ZM436 490H65V119H436V490Z" />
<glyph unicode="&#xa7;" glyph-name="section" horiz-adv-x="550" d="M430 192Q433 177 433 163Q433 155 432 144T422 96T353 13T217 -33Q177 -33 143 -21T75 22Q49 48 49 79Q49 99 60 123T91 162T139 177Q159 177 189 157T235 136L246 138Q261 141 270 151T280
176Q280 188 265 205T183 247T94 299T62 356T51 414Q51 457 73 495T133 558Q131 576 131 585Q131 652 180 703T270 759T319 763T333 763Q364 763 391 756T438 730T469 689T480 645Q480 615 463 592T415 562Q401 560 359 578T308 597Q286 597 282 567Q280 556 285
546T303 536Q390 526 451 468T512 334Q512 325 512 317Q509 305 500 262T430 192ZM232 432Q218 432 210 424T201 395Q199 386 210 372T244 355T293 343T344 318Q360 329 360 348Q360 359 347 376T286 411T232 432Z" />
<glyph unicode="&#xa8;" glyph-name="dieresis" horiz-adv-x="670" d="M380 589Q361 589 343 600T322 634Q317 668 345 680T407 692Q431 692 450 683T473 649Q477 617 445 603T380 589ZM173 589Q153 589 135 600T113 634Q108 668 136 680T198 692Q230 692 245
681T264 649Q268 617 237 603T173 589Z" />
<glyph unicode="&#xa9;" glyph-name="copyright" horiz-adv-x="758" d="M744 351Q744 200 637 93T379 -14Q227 -14 121 92T14 351Q14 501 121 608T379 715Q530 715 637 609T744 351ZM675 351Q675 474 589 560T379 646Q256 646 170 560T83 351Q83 228 169 142T379
55Q502 55 588 141T675 351ZM502 243Q510 225 510 210Q510 177 479 155T404 132Q312 132 270 193T228 342Q228 397 244 450T298 535T396 567Q438 567 459 560T493 534T507 492Q507 471 494 454T458 430Q444 426 418 437T384 448Q376 448 364 440T341 404T330 343Q330
312 339 289T368 258Q377 254 407 265T454 276Q469 276 480 269T502 243Z" />
<glyph unicode="&#xab;" glyph-name="guillemotleft" horiz-adv-x="560" d="M473 117Q442 117 406 150T337 218T281 284T257 344Q257 374 278 402T338 471T412 542T473 571Q491 571 506 558T522 527Q522 507 475 439T427 344Q427 317 474 249T522 161Q522 143
507 130T473 117ZM230 117Q199 117 163 150T94 218T38 284T14 344Q14 374 35 402T95 471T169 542T230 571Q248 571 263 558T279 527Q279 507 232 439T184 344Q184 317 231 249T279 161Q279 143 264 130T230 117Z" />
<glyph unicode="&#xad;" glyph-name="hyphen" horiz-adv-x="480" d="M389 299Q380 292 345 282T296 274Q258 282 219 282Q183 282 166 278T139 273Q100 273 79 282T47 308T36 346Q36 391 78 414Q89 425 102 431T134 437Q141 437 169 432T230 426Q260 426 293 431T333
437Q351 437 359 436T398 425Q404 420 415 404T426 366Q426 348 419 333T389 299Z" />
<glyph unicode="&#xae;" glyph-name="registered" horiz-adv-x="758" d="M744 351Q744 200 637 93T379 -14Q227 -14 121 92T14 351Q14 501 121 608T379 715Q530 715 637 609T744 351ZM675 351Q675 474 589 560T379 646Q256 646 170 560T83 351Q83 228 169 142T379
55Q502 55 588 141T675 351ZM546 164Q543 139 526 125T482 110Q442 110 421 145T400 222Q400 230 402 249T404 270Q404 292 392 308Q390 310 384 308T378 301Q378 255 360 219T307 182Q296 182 290 183T270 190T250 210T243 240Q243 248 246 257T254 280T269 308T279
331Q277 346 275 361T271 384T269 399Q269 409 280 431T319 453Q337 453 345 441T359 419T365 397Q366 396 370 392T379 388Q412 394 418 423Q420 435 415 446T398 462Q390 466 382 467T362 468Q350 468 326 465T290 462Q269 462 257 470T240 495T235 523Q235 558
269 575T351 592Q374 592 392 589T441 577T495 534T519 460Q519 433 504 411T472 377T456 361Q456 355 469 343T490 292T500 245T525 216T546 172V164Z" />
<glyph unicode="&#xaf;" glyph-name="overscore" horiz-adv-x="614" d="M447 605H175Q152 605 146 609T139 642Q139 666 144 672T166 678H175H447Q470 678 476 674T483 642Q483 615 477 610T447 605Z" />
<glyph unicode="0;" glyph-name="degree" horiz-adv-x="293" d="M146 516Q98 516 64 550T29 633Q29 681 63 715T146 749Q194 749 228 715T262 633Q262 584 228 550T146 516ZM146 693Q120 693 103 677T85 634Q85 607 102 590T146 572Q172 572 189 589T207 634Q207
660 190 676T146 693Z" />
<glyph unicode="4;" glyph-name="acute" horiz-adv-x="368" d="M274 676Q271 654 216 619T92 583Q73 583 64 587T58 608Q62 631 87 652Q117 672 129 681T159 704T190 717Q222 717 250 709T274 676Z" />
<glyph unicode="6;" glyph-name="paragraph" horiz-adv-x="580" d="M496 647V39Q496 12 490 5T459 -2Q432 -2 427 3T422 36V649Q422 669 419 674T398 680Q382 680 377 675T371 653V643V34Q371 9 365 4T332 -1H319Q304 -1 301 1T297 17V31V362Q298 384 298
391Q298 407 280 407H271L231 403Q135 403 86 447T36 562Q36 646 90 704T225 762L500 761Q527 761 536 753T545 728Q544 711 544 702Q544 678 520 678T496 647ZM287 675Q255 675 234 646T213 581Q213 542 233 517T283 491Q293 491 294 495T297 512L298 643V657Q298
662 298 669T287 675Z" />
<glyph unicode="7;" glyph-name="middot" horiz-adv-x="1000" d="M396 322Q368 340 368 374Q368 397 384 422T432 465T501 482Q533 482 557 471T588 447T595 410Q595 360 559 330T471 300Q430 300 396 322Z" />
<glyph unicode="8;" glyph-name="cedilla" horiz-adv-x="339" d="M175 -146Q135 -146 121 -134T106 -107Q106 -85 145 -77T185 -56Q185 -47 182 -34T175 -13H220Q240 -34 260 -58T281 -97Q281 -124 246 -135T175 -146Z" />
<glyph unicode="b;" glyph-name="guillemotright" horiz-adv-x="560" d="M436 213Q401 175 367 146T306 117Q288 117 273 130T257 161Q257 181 304 249T352 344Q352 371 305 439T257 527Q257 545 272 558T306 571Q337 571 373 538T442 470T498 404T522 344Q522
314 501 286T436 213ZM193 213Q158 175 124 146T63 117Q45 117 30 130T14 161Q14 181 61 249T109 344Q109 371 62 439T14 527Q14 545 29 558T63 571Q94 571 130 538T199 470T255 404T279 344Q279 314 258 286T193 213Z" />
<glyph unicode="f;" glyph-name="questiondown" horiz-adv-x="530" d="M301 592Q272 592 251 599T216 628T202 676Q202 720 240 742T320 764Q337 764 362 758T405 730T423 681Q423 669 415 648T374 610T301 592ZM223 -9Q181 -9 142 16T75 91T46 191Q46 245
78 290T155 368T238 426T281 482T294 527T326 539Q345 539 362 529T391 503T408 469T414 434Q414 398 394 369Q315 304 236 240Q231 232 231 225Q231 211 243 200T271 189Q281 189 303 205T358 239T419 257Q439 257 456 247T488 206T504 143Q504 69 414 30T223
-9Z" />
<glyph unicode="0;" glyph-name="Agrave" horiz-adv-x="760" d="M520 521Q515 523 509 524T497 525Q456 525 443 479T430 369Q427 351 443 340T467 335Q481 348 508 419T583 490Q589 490 609 487T645 462T659 415Q659 334 666 284T698 193T724 120Q724 77
692 46T613 15Q593 15 568 22T524 47T491 92T472 162T461 211T446 227T427 236Q416 236 414 227T402 100T352 -92T252 -176T184 -186Q149 -186 119 -168T78 -118T66 -60Q66 -19 132 34T205 105T221 179T231 274Q229 285 228 290T211 300Q182 264 140 264Q107 264
93 285T74 320T70 347Q70 380 92 406T140 439T181 447T220 449H237Q245 449 248 455T253 470Q268 514 283 558Q313 635 371 687T530 740Q567 740 612 731T684 690T710 617Q709 609 709 605Q703 562 667 537T579 511Q557 511 542 515T520 521ZM604 786Q536 786 481
821T422 879Q418 903 446 911T506 920Q515 920 525 914T562 888T609 855Q634 834 638 811Q641 796 631 791T604 786Z" />
<glyph unicode="1;" glyph-name="Aacute" horiz-adv-x="760" d="M520 521Q515 523 509 524T497 525Q456 525 443 479T430 369Q427 351 443 340T467 335Q481 348 508 419T583 490Q589 490 609 487T645 462T659 415Q659 334 666 284T698 193T724 120Q724 77
692 46T613 15Q593 15 568 22T524 47T491 92T472 162T461 211T446 227T427 236Q416 236 414 227T402 100T352 -92T252 -176T184 -186Q149 -186 119 -168T78 -118T66 -60Q66 -19 132 34T205 105T221 179T231 274Q229 285 228 290T211 300Q182 264 140 264Q107 264
93 285T74 320T70 347Q70 380 92 406T140 439T181 447T220 449H237Q245 449 248 455T253 470Q268 514 283 558Q313 635 371 687T530 740Q567 740 612 731T684 690T710 617Q709 609 709 605Q703 562 667 537T579 511Q557 511 542 515T520 521ZM638 886Q635 864 580
829T456 793Q437 793 428 797T422 818Q426 841 451 862Q481 882 493 891T523 914T554 927Q586 927 614 919T638 886Z" />
<glyph unicode="2;" glyph-name="Acircumflex" horiz-adv-x="760" d="M520 521Q515 523 509 524T497 525Q456 525 443 479T430 369Q427 351 443 340T467 335Q481 348 508 419T583 490Q589 490 609 487T645 462T659 415Q659 334 666 284T698 193T724 120Q724
77 692 46T613 15Q593 15 568 22T524 47T491 92T472 162T461 211T446 227T427 236Q416 236 414 227T402 100T352 -92T252 -176T184 -186Q149 -186 119 -168T78 -118T66 -60Q66 -19 132 34T205 105T221 179T231 274Q229 285 228 290T211 300Q182 264 140 264Q107
264 93 285T74 320T70 347Q70 380 92 406T140 439T181 447T220 449H237Q245 449 248 455T253 470Q268 514 283 558Q313 635 371 687T530 740Q567 740 612 731T684 690T710 617Q709 609 709 605Q703 562 667 537T579 511Q557 511 542 515T520 521ZM687 783Q669 783
619 811T548 839Q528 839 478 811T409 783Q399 783 393 791T386 812Q386 843 454 895T548 947Q575 947 643 896T711 812Q711 783 687 783Z" />
<glyph unicode="3;" glyph-name="Atilde" horiz-adv-x="760" d="M520 521Q515 523 509 524T497 525Q456 525 443 479T430 369Q427 351 443 340T467 335Q481 348 508 419T583 490Q589 490 609 487T645 462T659 415Q659 334 666 284T698 193T724 120Q724 77
692 46T613 15Q593 15 568 22T524 47T491 92T472 162T461 211T446 227T427 236Q416 236 414 227T402 100T352 -92T252 -176T184 -186Q149 -186 119 -168T78 -118T66 -60Q66 -19 132 34T205 105T221 179T231 274Q229 285 228 290T211 300Q182 264 140 264Q107 264
93 285T74 320T70 347Q70 380 92 406T140 439T181 447T220 449H237Q245 449 248 455T253 470Q268 514 283 558Q313 635 371 687T530 740Q567 740 612 731T684 690T710 617Q709 609 709 605Q703 562 667 537T579 511Q557 511 542 515T520 521ZM636 788Q603 788 543
813T473 839Q463 839 461 836T458 821Q458 805 449 797T427 788Q396 788 381 795T366 831Q366 866 390 891T446 916Q479 916 540 891T610 865Q627 865 625 884Q625 901 634 908T655 916Q685 916 701 909T717 874Q717 840 693 814T636 788Z" />
<glyph unicode="4;" glyph-name="Adieresis" horiz-adv-x="760" d="M520 521Q515 523 509 524T497 525Q456 525 443 479T430 369Q427 351 443 340T467 335Q481 348 508 419T583 490Q589 490 609 487T645 462T659 415Q659 334 666 284T698 193T724 120Q724
77 692 46T613 15Q593 15 568 22T524 47T491 92T472 162T461 211T446 227T427 236Q416 236 414 227T402 100T352 -92T252 -176T184 -186Q149 -186 119 -168T78 -118T66 -60Q66 -19 132 34T205 105T221 179T231 274Q229 285 228 290T211 300Q182 264 140 264Q107
264 93 285T74 320T70 347Q70 380 92 406T140 439T181 447T220 449H237Q245 449 248 455T253 470Q268 514 283 558Q313 635 371 687T530 740Q567 740 612 731T684 690T710 617Q709 609 709 605Q703 562 667 537T579 511Q557 511 542 515T520 521ZM625 799Q606 799
588 810T567 844Q562 878 590 890T652 902Q676 902 695 893T718 859Q722 827 690 813T625 799ZM418 799Q398 799 380 810T358 844Q353 878 381 890T443 902Q475 902 490 891T509 859Q513 827 482 813T418 799Z" />
<glyph unicode="5;" glyph-name="Aring" horiz-adv-x="760" d="M520 521Q515 523 509 524T497 525Q456 525 443 479T430 369Q427 351 443 340T467 335Q481 348 508 419T583 490Q589 490 609 487T645 462T659 415Q659 334 666 284T698 193T724 120Q724 77 692
46T613 15Q593 15 568 22T524 47T491 92T472 162T461 211T446 227T427 236Q416 236 414 227T402 100T352 -92T252 -176T184 -186Q149 -186 119 -168T78 -118T66 -60Q66 -19 132 34T205 105T221 179T231 274Q229 285 228 290T211 300Q182 264 140 264Q107 264 93
285T74 320T70 347Q70 380 92 406T140 439T181 447T220 449H237Q245 449 248 455T253 470Q268 514 283 558Q313 635 371 687T530 740Q567 740 612 731T684 690T710 617Q709 609 709 605Q703 562 667 537T579 511Q557 511 542 515T520 521ZM554 773Q511 773 482
791T452 853Q452 895 482 913T555 932Q595 932 626 914T657 853Q657 811 626 792T554 773ZM555 898Q532 898 520 886T507 853Q507 834 519 821T554 807Q577 807 589 819T602 853Q602 871 590 884T555 898Z" />
<glyph unicode="6;" glyph-name="AE" horiz-adv-x="1040" d="M794 554Q781 561 768 561Q747 561 732 546T717 510Q717 497 728 476T795 449T868 426T886 380Q886 341 866 336T781 322T702 280Q712 236 733 198Q743 195 748 194T763 193Q784 193 831 212T898
231Q912 231 918 230T943 220T972 190T983 143Q983 137 983 131Q981 123 975 89T913 24T780 -6Q650 -6 569 40T488 222Q488 227 482 231T467 236Q453 236 450 227T438 100T388 -92T288 -176T220 -186Q185 -186 155 -168T114 -118T102 -60Q102 -19 168 34T241 105T257
179T267 274Q265 285 264 290T247 300Q218 264 176 264Q143 264 129 285T110 320T106 347Q106 380 128 406T176 439T217 447T256 449H273Q281 449 284 455T289 470Q304 514 319 558Q349 635 407 687T566 740Q603 740 650 731L660 728Q717 750 778 750Q801 750 847
743T937 703T982 619Q982 573 957 550T890 527Q845 527 794 554ZM532 524Q493 524 480 476T466 369Q463 351 479 340T503 335Q521 351 538 397T559 451Q538 485 532 524Z" />
<glyph unicode="7;" glyph-name="Ccedilla" horiz-adv-x="570" d="M411 506Q401 504 395 504Q376 504 340 520T288 536Q277 536 255 522T215 460T197 354Q197 301 213 259T247 209T275 201Q289 201 334 218T405 235Q430 235 449 222T480 186T494 148T497 119Q497
60 445 21T321 -18Q166 -18 97 90T27 353Q27 405 33 450T60 564T145 690T308 747Q364 747 403 737T460 701T485 655T492 614Q492 576 471 546T411 506ZM245 -146Q205 -146 191 -134T176 -107Q176 -85 215 -77T255 -56Q255 -47 252 -34T245 -13H290Q310 -34 330
-58T351 -97Q351 -124 316 -135T245 -146Z" />
<glyph unicode="8;" glyph-name="Egrave" horiz-adv-x="580" d="M353 554Q340 561 327 561Q306 561 291 546T276 510Q276 497 287 476T354 449T427 426T445 380Q445 341 410 332Q359 323 308 315Q255 299 255 246Q255 233 263 220T286 201T322 194Q344 194
390 213T456 232Q475 232 497 222T531 190T542 143Q542 137 542 131Q540 123 534 89T473 24T340 -6Q307 -6 276 -2T200 15T117 57T63 129T47 209Q47 268 80 312T172 391Q131 424 110 469T88 559Q88 606 109 645T169 706T250 738T336 750Q352 750 361 749T411 742T496
703T541 619Q541 573 516 550T449 527Q404 527 353 554ZM401 786Q333 786 278 821T219 879Q215 903 243 911T303 920Q312 920 322 914T359 888T406 855Q431 834 435 811Q438 796 428 791T401 786Z" />
<glyph unicode="9;" glyph-name="Eacute" horiz-adv-x="580" d="M353 554Q340 561 327 561Q306 561 291 546T276 510Q276 497 287 476T354 449T427 426T445 380Q445 341 410 332Q359 323 308 315Q255 299 255 246Q255 233 263 220T286 201T322 194Q344 194
390 213T456 232Q475 232 497 222T531 190T542 143Q542 137 542 131Q540 123 534 89T473 24T340 -6Q307 -6 276 -2T200 15T117 57T63 129T47 209Q47 268 80 312T172 391Q131 424 110 469T88 559Q88 606 109 645T169 706T250 738T336 750Q352 750 361 749T411 742T496
703T541 619Q541 573 516 550T449 527Q404 527 353 554ZM449 886Q446 864 391 829T267 793Q248 793 239 797T233 818Q237 841 262 862Q292 882 304 891T334 914T365 927Q397 927 425 919T449 886Z" />
<glyph unicode="a;" glyph-name="Ecircumflex" horiz-adv-x="580" d="M353 554Q340 561 327 561Q306 561 291 546T276 510Q276 497 287 476T354 449T427 426T445 380Q445 341 410 332Q359 323 308 315Q255 299 255 246Q255 233 263 220T286 201T322 194Q344
194 390 213T456 232Q475 232 497 222T531 190T542 143Q542 137 542 131Q540 123 534 89T473 24T340 -6Q307 -6 276 -2T200 15T117 57T63 129T47 209Q47 268 80 312T172 391Q131 424 110 469T88 559Q88 606 109 645T169 706T250 738T336 750Q352 750 361 749T411
742T496 703T541 619Q541 573 516 550T449 527Q404 527 353 554ZM491 776Q473 776 423 804T352 832Q332 832 282 804T213 776Q203 776 197 784T190 805Q190 836 258 888T352 940Q379 940 447 889T515 805Q515 776 491 776Z" />
<glyph unicode="b;" glyph-name="Edieresis" horiz-adv-x="580" d="M353 554Q340 561 327 561Q306 561 291 546T276 510Q276 497 287 476T354 449T427 426T445 380Q445 341 410 332Q359 323 308 315Q255 299 255 246Q255 233 263 220T286 201T322 194Q344
194 390 213T456 232Q475 232 497 222T531 190T542 143Q542 137 542 131Q540 123 534 89T473 24T340 -6Q307 -6 276 -2T200 15T117 57T63 129T47 209Q47 268 80 312T172 391Q131 424 110 469T88 559Q88 606 109 645T169 706T250 738T336 750Q352 750 361 749T411
742T496 703T541 619Q541 573 516 550T449 527Q404 527 353 554ZM415 799Q396 799 378 810T357 844Q352 878 380 890T442 902Q466 902 485 893T508 859Q512 827 480 813T415 799ZM208 799Q188 799 170 810T148 844Q143 878 171 890T233 902Q265 902 280 891T299
859Q303 827 272 813T208 799Z" />
<glyph unicode="c;" glyph-name="Igrave" horiz-adv-x="550" d="M426 135Q408 80 347 44T218 8Q166 8 125 31T69 93T54 156Q54 198 87 219T164 240Q196 240 208 233T226 226Q239 226 249 237T259 275Q259 376 264 422T289 519T309 577Q309 587 295 587Q285
587 271 581Q252 567 219 548T151 529Q125 529 105 544T76 588T66 634Q66 682 105 714T199 746Q220 746 253 736T328 726Q361 726 397 734T470 750Q487 754 498 741T510 712Q510 703 487 674T446 583T429 451Q429 411 435 333T441 243Q441 213 438 186T426 135ZM415
793Q347 793 292 828T233 886Q229 910 257 918T317 927Q326 927 336 921T373 895T420 862Q445 841 449 818Q452 803 442 798T415 793Z" />
<glyph unicode="d;" glyph-name="Iacute" horiz-adv-x="550" d="M426 135Q408 80 347 44T218 8Q166 8 125 31T69 93T54 156Q54 198 87 219T164 240Q196 240 208 233T226 226Q239 226 249 237T259 275Q259 376 264 422T289 519T309 577Q309 587 295 587Q285
587 271 581Q252 567 219 548T151 529Q125 529 105 544T76 588T66 634Q66 682 105 714T199 746Q220 746 253 736T328 726Q361 726 397 734T470 750Q487 754 498 741T510 712Q510 703 487 674T446 583T429 451Q429 411 435 333T441 243Q441 213 438 186T426 135ZM477
886Q474 864 419 829T295 793Q276 793 267 797T261 818Q265 841 290 862Q320 882 332 891T362 914T393 927Q425 927 453 919T477 886Z" />
<glyph unicode="e;" glyph-name="Icircumflex" horiz-adv-x="550" d="M426 135Q408 80 347 44T218 8Q166 8 125 31T69 93T54 156Q54 198 87 219T164 240Q196 240 208 233T226 226Q239 226 249 237T259 275Q259 376 264 422T289 519T309 577Q309 587 295 587Q285
587 271 581Q252 567 219 548T151 529Q125 529 105 544T76 588T66 634Q66 682 105 714T199 746Q220 746 253 736T328 726Q361 726 397 734T470 750Q487 754 498 741T510 712Q510 703 487 674T446 583T429 451Q429 411 435 333T441 243Q441 213 438 186T426 135ZM484
790Q466 790 416 818T345 846Q325 846 275 818T206 790Q196 790 190 798T183 819Q183 850 251 902T345 954Q372 954 440 903T508 819Q508 790 484 790Z" />
<glyph unicode="f;" glyph-name="Idieresis" horiz-adv-x="550" d="M426 135Q408 80 347 44T218 8Q166 8 125 31T69 93T54 156Q54 198 87 219T164 240Q196 240 208 233T226 226Q239 226 249 237T259 275Q259 376 264 422T289 519T309 577Q309 587 295 587Q285
587 271 581Q252 567 219 548T151 529Q125 529 105 544T76 588T66 634Q66 682 105 714T199 746Q220 746 253 736T328 726Q361 726 397 734T470 750Q487 754 498 741T510 712Q510 703 487 674T446 583T429 451Q429 411 435 333T441 243Q441 213 438 186T426 135ZM436
799Q417 799 399 810T378 844Q373 878 401 890T463 902Q487 902 506 893T529 859Q533 827 501 813T436 799ZM229 799Q209 799 191 810T169 844Q164 878 192 890T254 902Q286 902 301 891T320 859Q324 827 293 813T229 799Z" />
<glyph unicode="&#xd1;" glyph-name="Ntilde" horiz-adv-x="790" d="M623 275Q646 234 660 201T674 132Q674 119 672 99T638 52T563 24Q536 24 483 54T408 177Q398 262 386 355T335 483T277 521T231 526Q222 526 204 525T176 524Q142 524 121 533T84 573T69 632Q69
685 114 722T223 760Q329 760 381 706T456 563Q470 492 484 422Q487 398 492 398Q499 398 499 417Q504 524 510 632Q531 750 636 750Q646 750 653 750T685 746T733 713T755 656Q755 644 749 631T681 501T618 325Q618 305 623 275ZM337 27Q322 -52 296 -86T232 -142T175
-164Q132 -164 105 -138T70 -93T62 -53Q62 -35 68 -19T99 30T139 125T159 247T162 407Q162 460 178 482T223 505Q253 505 285 481T317 439Q324 395 335 314T346 146Q346 80 337 27ZM559 802Q526 802 466 827T396 853Q386 853 384 850T381 835Q381 819 372 811T350
802Q319 802 304 809T289 845Q289 880 313 905T369 930Q402 930 463 905T533 879Q550 879 548 898Q548 915 557 922T578 930Q608 930 624 923T640 888Q640 854 616 828T559 802Z" />
<glyph unicode="&#xd2;" glyph-name="Ograve" horiz-adv-x="590" d="M472 100Q410 -5 282 -5Q235 -5 192 9T126 48T68 131T33 286Q33 353 61 404T123 469T170 482Q193 482 211 472T229 444Q229 417 219 370T208 301Q208 277 215 255T240 216T280 198Q295 198 304
206Q339 232 354 271T370 357Q370 394 363 429T345 496T321 542T290 557Q283 557 276 554T237 528T190 502T165 498Q126 498 95 524T68 593Q68 662 117 704T213 753T280 760Q330 760 371 743T455 674T525 546T551 389Q551 315 530 241T472 100ZM366 793Q298 793
243 828T184 886Q180 910 208 918T268 927Q277 927 287 921T324 895T371 862Q396 841 400 818Q403 803 393 798T366 793Z" />
<glyph unicode="&#xd3;" glyph-name="Oacute" horiz-adv-x="590" d="M472 100Q410 -5 282 -5Q235 -5 192 9T126 48T68 131T33 286Q33 353 61 404T123 469T170 482Q193 482 211 472T229 444Q229 417 219 370T208 301Q208 277 215 255T240 216T280 198Q295 198 304
206Q339 232 354 271T370 357Q370 394 363 429T345 496T321 542T290 557Q283 557 276 554T237 528T190 502T165 498Q126 498 95 524T68 593Q68 662 117 704T213 753T280 760Q330 760 371 743T455 674T525 546T551 389Q551 315 530 241T472 100ZM400 886Q397 864
342 829T218 793Q199 793 190 797T184 818Q188 841 213 862Q243 882 255 891T285 914T316 927Q348 927 376 919T400 886Z" />
<glyph unicode="&#xd4;" glyph-name="Ocircumflex" horiz-adv-x="590" d="M472 100Q410 -5 282 -5Q235 -5 192 9T126 48T68 131T33 286Q33 353 61 404T123 469T170 482Q193 482 211 472T229 444Q229 417 219 370T208 301Q208 277 215 255T240 216T280 198Q295
198 304 206Q339 232 354 271T370 357Q370 394 363 429T345 496T321 542T290 557Q283 557 276 554T237 528T190 502T165 498Q126 498 95 524T68 593Q68 662 117 704T213 753T280 760Q330 760 371 743T455 674T525 546T551 389Q551 315 530 241T472 100ZM414 783Q396
783 346 811T275 839Q255 839 205 811T136 783Q126 783 120 791T113 812Q113 843 181 895T275 947Q302 947 370 896T438 812Q438 783 414 783Z" />
<glyph unicode="&#xd5;" glyph-name="Otilde" horiz-adv-x="590" d="M472 100Q410 -5 282 -5Q235 -5 192 9T126 48T68 131T33 286Q33 353 61 404T123 469T170 482Q193 482 211 472T229 444Q229 417 219 370T208 301Q208 277 215 255T240 216T280 198Q295 198 304
206Q339 232 354 271T370 357Q370 394 363 429T345 496T321 542T290 557Q283 557 276 554T237 528T190 502T165 498Q126 498 95 524T68 593Q68 662 117 704T213 753T280 760Q330 760 371 743T455 674T525 546T551 389Q551 315 530 241T472 100ZM398 788Q365 788
305 813T235 839Q225 839 223 836T220 821Q220 805 211 797T189 788Q158 788 143 795T128 831Q128 866 152 891T208 916Q241 916 302 891T372 865Q389 865 387 884Q387 901 396 908T417 916Q447 916 463 909T479 874Q479 840 455 814T398 788Z" />
<glyph unicode="&#xd6;" glyph-name="Odieresis" horiz-adv-x="590" d="M472 100Q410 -5 282 -5Q235 -5 192 9T126 48T68 131T33 286Q33 353 61 404T123 469T170 482Q193 482 211 472T229 444Q229 417 219 370T208 301Q208 277 215 255T240 216T280 198Q295 198
304 206Q339 232 354 271T370 357Q370 394 363 429T345 496T321 542T290 557Q283 557 276 554T237 528T190 502T165 498Q126 498 95 524T68 593Q68 662 117 704T213 753T280 760Q330 760 371 743T455 674T525 546T551 389Q551 315 530 241T472 100ZM366 799Q347
799 329 810T308 844Q303 878 331 890T393 902Q417 902 436 893T459 859Q463 827 431 813T366 799ZM159 799Q139 799 121 810T99 844Q94 878 122 890T184 902Q216 902 231 891T250 859Q254 827 223 813T159 799Z" />
<glyph unicode="&#xd7;" glyph-name="GS" horiz-adv-x="510" d="M337 184Q317 186 302 194T270 225L243 259Q227 242 219 229T188 200T151 174Q157 180 162 184Q142 168 122 168Q99 168 84 188T69 235Q69 249 73 260Q75 279 83 295T114 328L148 354L114 382Q98
393 86 409T59 449Q55 476 71 499T126 523Q139 523 149 521T189 502T227 471L244 451L270 484Q283 502 297 513T337 539Q355 540 383 531T411 472Q411 459 410 449T391 409T360 370L339 354L370 329Q381 321 402 293T424 262Q417 268 413 274Q421 265 425 254T429
234Q429 211 409 196T361 180Q348 180 337 184Z" />
<glyph unicode="&#xd8;" glyph-name="Oslash" horiz-adv-x="590" d="M463 663Q508 602 529 532T551 389Q551 315 530 241T460 81T282 -5Q235 -5 182 13L170 18Q158 -13 145 -44T118 -77Q105 -79 90 -70T75 -49Q75 -36 91 -7T123 50Q110 63 102 74T64 138T33 286Q33
353 61 404T123 469T170 482Q193 482 211 472T229 444Q229 417 219 370T208 301Q208 277 215 256L216 251L338 515Q332 533 319 545T290 557Q283 557 276 554T237 528T190 502T165 498Q126 498 95 524T68 593Q68 662 117 704T213 753T280 760Q321 760 359 747T427
706Q437 728 448 752T468 785Q477 794 486 783T500 757Q503 745 491 717T463 663ZM255 205Q266 198 281 198Q295 198 317 215T354 270T370 356Q370 387 367 406Q362 427 360 437L255 205Z" />
<glyph unicode="&#xd9;" glyph-name="Ugrave" horiz-adv-x="650" d="M528 291Q530 268 563 203T597 109Q597 59 565 26T481 -7Q472 -6 467 -6Q423 -2 396 22T353 75T331 103Q324 103 306 73T266 20T201 -2Q182 -2 149 4T91 44T63 105T59 145T58 163Q58 197 71
283T84 400Q84 442 74 480T39 551T14 622Q14 671 48 709T128 747Q143 747 185 732T252 670T277 554Q277 520 269 443T260 339Q260 302 263 285T273 247T296 227Q309 227 325 244T345 274T353 347T357 451V463Q357 508 350 525T337 566T332 609Q332 692 377 719T460
746Q501 746 531 727T566 686T570 654T570 636Q570 595 548 496T526 334Q526 323 527 311T528 291ZM380 793Q312 793 257 828T198 886Q194 910 222 918T282 927Q291 927 301 921T338 895T385 862Q410 841 414 818Q417 803 407 798T380 793Z" />
<glyph unicode="&#xda;" glyph-name="Uacute" horiz-adv-x="650" d="M528 291Q530 268 563 203T597 109Q597 59 565 26T481 -7Q472 -6 467 -6Q423 -2 396 22T353 75T331 103Q324 103 306 73T266 20T201 -2Q182 -2 149 4T91 44T63 105T59 145T58 163Q58 197 71
283T84 400Q84 442 74 480T39 551T14 622Q14 671 48 709T128 747Q143 747 185 732T252 670T277 554Q277 520 269 443T260 339Q260 302 263 285T273 247T296 227Q309 227 325 244T345 274T353 347T357 451V463Q357 508 350 525T337 566T332 609Q332 692 377 719T460
746Q501 746 531 727T566 686T570 654T570 636Q570 595 548 496T526 334Q526 323 527 311T528 291ZM435 886Q432 864 377 829T253 793Q234 793 225 797T219 818Q223 841 248 862Q278 882 290 891T320 914T351 927Q383 927 411 919T435 886Z" />
<glyph unicode="&#xdb;" glyph-name="Ucircumflex" horiz-adv-x="650" d="M528 291Q530 268 563 203T597 109Q597 59 565 26T481 -7Q472 -6 467 -6Q423 -2 396 22T353 75T331 103Q324 103 306 73T266 20T201 -2Q182 -2 149 4T91 44T63 105T59 145T58 163Q58 197
71 283T84 400Q84 442 74 480T39 551T14 622Q14 671 48 709T128 747Q143 747 185 732T252 670T277 554Q277 520 269 443T260 339Q260 302 263 285T273 247T296 227Q309 227 325 244T345 274T353 347T357 451V463Q357 508 350 525T337 566T332 609Q332 692 377 719T460
746Q501 746 531 727T566 686T570 654T570 636Q570 595 548 496T526 334Q526 323 527 311T528 291ZM442 783Q424 783 374 811T303 839Q283 839 233 811T164 783Q154 783 148 791T141 812Q141 843 209 895T303 947Q330 947 398 896T466 812Q466 783 442 783Z" />
<glyph unicode="&#xdc;" glyph-name="Udieresis" horiz-adv-x="650" d="M528 291Q530 268 563 203T597 109Q597 59 565 26T481 -7Q472 -6 467 -6Q423 -2 396 22T353 75T331 103Q324 103 306 73T266 20T201 -2Q182 -2 149 4T91 44T63 105T59 145T58 163Q58 197
71 283T84 400Q84 442 74 480T39 551T14 622Q14 671 48 709T128 747Q143 747 185 732T252 670T277 554Q277 520 269 443T260 339Q260 302 263 285T273 247T296 227Q309 227 325 244T345 274T353 347T357 451V463Q357 508 350 525T337 566T332 609Q332 692 377 719T460
746Q501 746 531 727T566 686T570 654T570 636Q570 595 548 496T526 334Q526 323 527 311T528 291ZM401 799Q382 799 364 810T343 844Q338 878 366 890T428 902Q452 902 471 893T494 859Q498 827 466 813T401 799ZM194 799Q174 799 156 810T134 844Q129 878 157
890T219 902Q251 902 266 891T285 859Q289 827 258 813T194 799Z" />
<glyph unicode="&#xdd;" glyph-name="BEL" horiz-adv-x="680" d="M451 -44Q435 -103 393 -140T306 -183T247 -189T224 -190Q172 -190 132 -171T78 -115T63 -49Q63 -18 77 4T111 34T145 41Q161 41 192 33T238 25Q248 25 267 31T295 70Q300 95 306 121Q310 132 310
141Q310 150 305 156T253 180T184 231T139 378T88 528T46 587T33 641Q33 684 63 713T140 742Q154 742 211 730T290 599Q300 497 306 444T320 384T336 375Q349 372 353 381T358 404Q365 485 372 566Q386 653 421 689T484 740T547 755Q567 755 593 748T635 716T650
668Q650 653 608 587T537 418T490 171T451 -44ZM526 900Q523 878 468 843T344 807Q325 807 316 811T310 832Q314 855 339 876Q369 896 381 905T411 928T442 941Q474 941 502 933T526 900Z" />
<glyph unicode="&#xdf;" glyph-name="germandbls" horiz-adv-x="680" d="M463 410Q446 391 446 373Q446 357 460 344Q541 309 609 279T677 170Q677 164 676 156T670 109T615 32T491 -5Q428 -5 386 11T329 39T301 74T287 129Q287 160 303 181T346 203Q381 203 432
182T489 159T499 157Q507 157 512 162T517 179Q517 187 514 192Q430 233 377 263T319 326T313 376Q313 422 341 472T369 529Q369 545 340 554T265 575T207 588Q193 588 186 586T181 574Q183 559 209 546T242 518T251 490T253 465Q253 456 252 443T251 426Q251 319
247 182T242 13Q242 5 242 -3T243 -22Q243 -91 223 -139T140 -187Q120 -187 95 -180T59 -157T43 -122T37 -86Q37 -63 61 -18T86 50Q86 111 89 234T92 420Q92 425 86 426T64 428H52Q29 428 23 439T17 467Q17 489 24 496T59 504T85 522Q83 535 74 573T65 630Q65 646
70 662T91 698T136 733T200 747Q257 747 382 675T523 522Q528 493 509 467T463 410Z" />
<glyph unicode="&#xe0;" glyph-name="agrave" horiz-adv-x="560" d="M539 122Q545 110 545 96Q545 71 528 48T494 19T458 7T422 2Q393 2 368 15T331 48T314 67Q312 67 308 63T291 45T249 17T188 2Q151 2 118 24T70 75T55 136Q55 163 63 186T92 240T205 293T315
332T334 361Q334 372 328 380T310 389Q303 389 298 387T251 358T182 330Q157 330 136 343T104 378T93 421Q93 448 111 475T183 520T305 537Q338 537 356 536T412 528T480 488T509 419Q509 391 504 346T499 278Q499 243 508 206T539 122ZM256 202Q253 201 242 190T230
165Q230 149 243 144T265 139Q286 139 306 162T326 210Q326 214 324 219T313 225Q299 225 283 220T256 202ZM377 583Q309 583 254 618T195 676Q191 700 219 708T279 717Q288 717 298 711T335 685T382 652Q407 631 411 608Q414 593 404 588T377 583Z" />
<glyph unicode="&#xe1;" glyph-name="aacute" horiz-adv-x="560" d="M539 122Q545 110 545 96Q545 71 528 48T494 19T458 7T422 2Q393 2 368 15T331 48T314 67Q312 67 308 63T291 45T249 17T188 2Q151 2 118 24T70 75T55 136Q55 163 63 186T92 240T205 293T315
332T334 361Q334 372 328 380T310 389Q303 389 298 387T251 358T182 330Q157 330 136 343T104 378T93 421Q93 448 111 475T183 520T305 537Q338 537 356 536T412 528T480 488T509 419Q509 391 504 346T499 278Q499 243 508 206T539 122ZM256 202Q253 201 242 190T230
165Q230 149 243 144T265 139Q286 139 306 162T326 210Q326 214 324 219T313 225Q299 225 283 220T256 202ZM428 676Q425 654 370 619T246 583Q227 583 218 587T212 608Q216 631 241 652Q271 672 283 681T313 704T344 717Q376 717 404 709T428 676Z" />
<glyph unicode="&#xe2;" glyph-name="acircumflex" horiz-adv-x="560" d="M539 122Q545 110 545 96Q545 71 528 48T494 19T458 7T422 2Q393 2 368 15T331 48T314 67Q312 67 308 63T291 45T249 17T188 2Q151 2 118 24T70 75T55 136Q55 163 63 186T92 240T205 293T315
332T334 361Q334 372 328 380T310 389Q303 389 298 387T251 358T182 330Q157 330 136 343T104 378T93 421Q93 448 111 475T183 520T305 537Q338 537 356 536T412 528T480 488T509 419Q509 391 504 346T499 278Q499 243 508 206T539 122ZM256 202Q253 201 242 190T230
165Q230 149 243 144T265 139Q286 139 306 162T326 210Q326 214 324 219T313 225Q299 225 283 220T256 202ZM435 573Q417 573 367 601T296 629Q276 629 226 601T157 573Q147 573 141 581T134 602Q134 633 202 685T296 737Q323 737 391 686T459 602Q459 573 435
573Z" />
<glyph unicode="&#xe3;" glyph-name="atilde" horiz-adv-x="560" d="M539 122Q545 110 545 96Q545 71 528 48T494 19T458 7T422 2Q393 2 368 15T331 48T314 67Q312 67 308 63T291 45T249 17T188 2Q151 2 118 24T70 75T55 136Q55 163 63 186T92 240T205 293T315
332T334 361Q334 372 328 380T310 389Q303 389 298 387T251 358T182 330Q157 330 136 343T104 378T93 421Q93 448 111 475T183 520T305 537Q338 537 356 536T412 528T480 488T509 419Q509 391 504 346T499 278Q499 243 508 206T539 122ZM256 202Q253 201 242 190T230
165Q230 149 243 144T265 139Q286 139 306 162T326 210Q326 214 324 219T313 225Q299 225 283 220T256 202ZM412 834Q379 834 319 859T249 885Q239 885 237 882T234 867Q234 851 225 843T203 834Q172 834 157 841T142 877Q142 912 166 937T222 962Q255 962 316
937T386 911Q403 911 401 930Q401 947 410 954T431 962Q461 962 477 955T493 920Q493 886 469 860T412 834Z" />
<glyph unicode="&#xe4;" glyph-name="adieresis" horiz-adv-x="560" d="M539 122Q545 110 545 96Q545 71 528 48T494 19T458 7T422 2Q393 2 368 15T331 48T314 67Q312 67 308 63T291 45T249 17T188 2Q151 2 118 24T70 75T55 136Q55 163 63 186T92 240T205 293T315
332T334 361Q334 372 328 380T310 389Q303 389 298 387T251 358T182 330Q157 330 136 343T104 378T93 421Q93 448 111 475T183 520T305 537Q338 537 356 536T412 528T480 488T509 419Q509 391 504 346T499 278Q499 243 508 206T539 122ZM256 202Q253 201 242 190T230
165Q230 149 243 144T265 139Q286 139 306 162T326 210Q326 214 324 219T313 225Q299 225 283 220T256 202ZM380 589Q361 589 343 600T322 634Q317 668 345 680T407 692Q431 692 450 683T473 649Q477 617 445 603T380 589ZM173 589Q153 589 135 600T113 634Q108
668 136 680T198 692Q230 692 245 681T264 649Q268 617 237 603T173 589Z" />
<glyph unicode="&#xe5;" glyph-name="aring" horiz-adv-x="560" d="M539 122Q545 110 545 96Q545 71 528 48T494 19T458 7T422 2Q393 2 368 15T331 48T314 67Q312 67 308 63T291 45T249 17T188 2Q151 2 118 24T70 75T55 136Q55 163 63 186T92 240T205 293T315
332T334 361Q334 372 328 380T310 389Q303 389 298 387T251 358T182 330Q157 330 136 343T104 378T93 421Q93 448 111 475T183 520T305 537Q338 537 356 536T412 528T480 488T509 419Q509 391 504 346T499 278Q499 243 508 206T539 122ZM256 202Q253 201 242 190T230
165Q230 149 243 144T265 139Q286 139 306 162T326 210Q326 214 324 219T313 225Q299 225 283 220T256 202ZM295 570Q252 570 223 588T193 650Q193 692 223 710T296 729Q336 729 367 711T398 650Q398 608 367 589T295 570ZM296 695Q273 695 261 683T248 650Q248
631 260 618T295 604Q318 604 330 616T343 650Q343 668 331 681T296 695Z" />
<glyph unicode="&#xe6;" glyph-name="ae" horiz-adv-x="850" d="M557 193Q541 189 541 169Q541 161 554 153T583 145Q593 145 601 148T619 158Q644 180 664 196T705 212Q732 212 752 192T777 158T782 128Q782 99 761 68T697 18T605 -2Q550 -2 500 22L485 15Q477
12 458 7T422 2Q393 2 368 15T331 48T314 67Q312 67 308 63T291 45T249 17T188 2Q151 2 118 24T70 75T55 136Q55 163 63 186T92 240T205 293T315 332T334 361Q334 372 328 380T310 389Q303 389 298 387T251 358T182 330Q157 330 136 343T104 378T93 421Q93 448
111 475T183 520T305 537Q338 537 356 536T407 529T467 499Q528 546 605 546Q628 546 650 542T707 523T767 468T791 383Q791 353 777 318T695 245T557 193ZM541 372Q524 352 524 327Q524 302 540 297Q562 292 591 318T621 372Q621 383 613 395T588 407Q566 407
545 381Q543 376 541 372ZM256 202Q253 201 242 190T230 165Q230 149 243 144T265 139Q286 139 306 162T326 210Q326 214 324 219T313 225Q299 225 283 220T256 202Z" />
<glyph unicode="&#xe7;" glyph-name="ccedilla" horiz-adv-x="480" d="M374 333Q363 329 350 329Q331 329 295 347T257 365Q238 366 228 343T218 284Q218 235 230 206T265 176Q273 176 291 195T351 215Q388 215 406 193T429 155T435 125Q435 108 429 94T410 58T360
21T282 5Q257 5 231 10T155 33T69 113T34 255Q34 307 48 358T86 451T158 516T264 540Q303 540 347 529T417 484T442 408Q442 382 423 363T374 333ZM231 -125Q191 -125 177 -113T162 -86Q162 -64 201 -56T241 -35Q241 -26 238 -13T231 8H276Q296 -13 316 -37T337
-76Q337 -103 302 -114T231 -125Z" />
<glyph unicode="&#xe8;" glyph-name="egrave" horiz-adv-x="510" d="M228 193Q212 189 212 169Q212 161 225 153T254 145Q264 145 272 148T290 158Q315 180 335 196T376 212Q403 212 423 192T448 158T453 128Q453 99 432 68T368 18T276 -2Q218 -2 167 23T87 93T45
184T31 275Q31 340 56 397T138 500T276 546Q299 546 321 542T378 523T438 468T462 383Q462 353 448 318T366 245T228 193ZM212 372Q195 352 195 327Q195 302 211 297Q233 292 262 318T292 372Q292 383 284 395T259 407Q237 407 216 381Q214 376 212 372ZM330 583Q262
583 207 618T148 676Q144 700 172 708T232 717Q241 717 251 711T288 685T335 652Q360 631 364 608Q367 593 357 588T330 583Z" />
<glyph unicode="&#xe9;" glyph-name="eacute" horiz-adv-x="510" d="M228 193Q212 189 212 169Q212 161 225 153T254 145Q264 145 272 148T290 158Q315 180 335 196T376 212Q403 212 423 192T448 158T453 128Q453 99 432 68T368 18T276 -2Q218 -2 167 23T87 93T45
184T31 275Q31 340 56 397T138 500T276 546Q299 546 321 542T378 523T438 468T462 383Q462 353 448 318T366 245T228 193ZM212 372Q195 352 195 327Q195 302 211 297Q233 292 262 318T292 372Q292 383 284 395T259 407Q237 407 216 381Q214 376 212 372ZM379 683Q376
661 321 626T197 590Q178 590 169 594T163 615Q167 638 192 659Q222 679 234 688T264 711T295 724Q327 724 355 716T379 683Z" />
<glyph unicode="&#xea;" glyph-name="ecircumflex" horiz-adv-x="510" d="M228 193Q212 189 212 169Q212 161 225 153T254 145Q264 145 272 148T290 158Q315 180 335 196T376 212Q403 212 423 192T448 158T453 128Q453 99 432 68T368 18T276 -2Q218 -2 167 23T87
93T45 184T31 275Q31 340 56 397T138 500T276 546Q299 546 321 542T378 523T438 468T462 383Q462 353 448 318T366 245T228 193ZM212 372Q195 352 195 327Q195 302 211 297Q233 292 262 318T292 372Q292 383 284 395T259 407Q237 407 216 381Q214 376 212 372ZM407
573Q389 573 339 601T268 629Q248 629 198 601T129 573Q119 573 113 581T106 602Q106 633 174 685T268 737Q295 737 363 686T431 602Q431 573 407 573Z" />
<glyph unicode="&#xeb;" glyph-name="edieresis" horiz-adv-x="510" d="M228 193Q212 189 212 169Q212 161 225 153T254 145Q264 145 272 148T290 158Q315 180 335 196T376 212Q403 212 423 192T448 158T453 128Q453 99 432 68T368 18T276 -2Q218 -2 167 23T87
93T45 184T31 275Q31 340 56 397T138 500T276 546Q299 546 321 542T378 523T438 468T462 383Q462 353 448 318T366 245T228 193ZM212 372Q195 352 195 327Q195 302 211 297Q233 292 262 318T292 372Q292 383 284 395T259 407Q237 407 216 381Q214 376 212 372ZM615
589Q596 589 578 600T557 634Q552 668 580 680T642 692Q666 692 685 683T708 649Q712 617 680 603T615 589ZM408 589Q388 589 370 600T348 634Q343 668 371 680T433 692Q465 692 480 681T499 649Q503 617 472 603T408 589Z" />
<glyph unicode="&#xec;" glyph-name="igrave" horiz-adv-x="360" d="M281 169Q293 151 298 136T303 109Q303 96 302 87T297 58T264 20T196 2Q178 2 154 8T110 32T84 74T77 115T75 156Q75 183 80 246T86 330Q86 354 84 375T76 420T70 454Q70 488 100 508T173 529Q192
529 211 525T248 512T275 483T283 446Q278 398 274 343T269 249Q269 189 281 169ZM252 583Q184 583 129 618T70 676Q66 700 94 708T154 717Q163 717 173 711T210 685T257 652Q282 631 286 608Q289 593 279 588T252 583Z" />
<glyph unicode="&#xed;" glyph-name="iacute" horiz-adv-x="360" d="M281 169Q293 151 298 136T303 109Q303 96 302 87T297 58T264 20T196 2Q178 2 154 8T110 32T84 74T77 115T75 156Q75 183 80 246T86 330Q86 354 84 375T76 420T70 454Q70 488 100 508T173 529Q192
529 211 525T248 512T275 483T283 446Q278 398 274 343T269 249Q269 189 281 169ZM295 676Q292 654 237 619T113 583Q94 583 85 587T79 608Q83 631 108 652Q138 672 150 681T180 704T211 717Q243 717 271 709T295 676Z" />
<glyph unicode="&#xee;" glyph-name="icircumflex" horiz-adv-x="360" d="M281 169Q293 151 298 136T303 109Q303 96 302 87T297 58T264 20T196 2Q178 2 154 8T110 32T84 74T77 115T75 156Q75 183 80 246T86 330Q86 354 84 375T76 420T70 454Q70 488 100 508T173
529Q192 529 211 525T248 512T275 483T283 446Q278 398 274 343T269 249Q269 189 281 169ZM565 573Q547 573 497 601T426 629Q406 629 356 601T287 573Q277 573 271 581T264 602Q264 633 332 685T426 737Q453 737 521 686T589 602Q589 573 565 573Z" />
<glyph unicode="&#xef;" glyph-name="idieresis" horiz-adv-x="360" d="M281 169Q293 151 298 136T303 109Q303 96 302 87T297 58T264 20T196 2Q178 2 154 8T110 32T84 74T77 115T75 156Q75 183 80 246T86 330Q86 354 84 375T76 420T70 454Q70 488 100 508T173
529Q192 529 211 525T248 512T275 483T283 446Q278 398 274 343T269 249Q269 189 281 169ZM534 589Q515 589 497 600T476 634Q471 668 499 680T561 692Q585 692 604 683T627 649Q631 617 599 603T534 589ZM327 589Q307 589 289 600T267 634Q262 668 290 680T352
692Q384 692 399 681T418 649Q422 617 391 603T327 589Z" />
<glyph unicode="&#xf1;" glyph-name="ntilde" horiz-adv-x="610" d="M557 194Q566 170 576 144T587 101Q587 87 584 76T568 46T530 15T475 2Q443 2 416 15T375 52T355 105T349 160Q349 189 356 248T363 329Q363 345 355 363T334 379Q302 373 290 346T277 274Q277
245 279 226T287 178T297 126T301 89Q301 78 294 57T258 17T191 -1Q160 -1 126 13T77 49T63 100Q63 123 69 144T87 196T100 260Q100 301 85 344T61 410T53 441Q53 472 80 495T141 526T194 534Q228 534 250 514Q269 490 279 478T299 466Q304 466 310 474T329 496T373
523T436 537Q472 537 496 526T534 491T550 454T553 427T554 395Q554 372 550 331T546 270Q546 249 548 233T557 194ZM405 585Q372 585 312 610T242 636Q232 636 230 633T227 618Q227 602 218 594T196 585Q165 585 150 592T135 628Q135 663 159 688T215 713Q248
713 309 688T379 662Q396 662 394 681Q394 698 403 705T424 713Q454 713 470 706T486 671Q486 637 462 611T405 585Z" />
<glyph unicode="&#xf2;" glyph-name="ograve" horiz-adv-x="520" d="M127 30Q82 64 62 116T41 233Q41 309 66 379T121 478T189 522T269 537Q310 537 366 516T456 431T490 285Q490 227 475 172T437 80T363 16T252 -11Q218 -11 188 -2T127 30ZM271 371Q254 373 240
360T225 320L222 203Q222 178 233 163T262 144Q282 141 295 166T308 215L307 316Q307 337 298 353T271 371ZM330 583Q262 583 207 618T148 676Q144 700 172 708T232 717Q241 717 251 711T288 685T335 652Q360 631 364 608Q367 593 357 588T330 583Z" />
<glyph unicode="&#xf3;" glyph-name="oacute" horiz-adv-x="520" d="M127 30Q82 64 62 116T41 233Q41 309 66 379T121 478T189 522T269 537Q310 537 366 516T456 431T490 285Q490 227 475 172T437 80T363 16T252 -11Q218 -11 188 -2T127 30ZM271 371Q254 373 240
360T225 320L222 203Q222 178 233 163T262 144Q282 141 295 166T308 215L307 316Q307 337 298 353T271 371ZM372 676Q369 654 314 619T190 583Q171 583 162 587T156 608Q160 631 185 652Q215 672 227 681T257 704T288 717Q320 717 348 709T372 676Z" />
<glyph unicode="&#xf4;" glyph-name="ocircumflex" horiz-adv-x="520" d="M127 30Q82 64 62 116T41 233Q41 309 66 379T121 478T189 522T269 537Q310 537 366 516T456 431T490 285Q490 227 475 172T437 80T363 16T252 -11Q218 -11 188 -2T127 30ZM271 371Q254
373 240 360T225 320L222 203Q222 178 233 163T262 144Q282 141 295 166T308 215L307 316Q307 337 298 353T271 371ZM414 573Q396 573 346 601T275 629Q255 629 205 601T136 573Q126 573 120 581T113 602Q113 633 181 685T275 737Q302 737 370 686T438 602Q438
573 414 573Z" />
<glyph unicode="&#xf5;" glyph-name="otilde" horiz-adv-x="520" d="M127 30Q82 64 62 116T41 233Q41 309 66 379T121 478T189 522T269 537Q310 537 366 516T456 431T490 285Q490 227 475 172T437 80T363 16T252 -11Q218 -11 188 -2T127 30ZM271 371Q254 373 240
360T225 320L222 203Q222 178 233 163T262 144Q282 141 295 166T308 215L307 316Q307 337 298 353T271 371ZM370 585Q337 585 277 610T207 636Q197 636 195 633T192 618Q192 602 183 594T161 585Q130 585 115 592T100 628Q100 663 124 688T180 713Q213 713 274
688T344 662Q361 662 359 681Q359 698 368 705T389 713Q419 713 435 706T451 671Q451 637 427 611T370 585Z" />
<glyph unicode="&#xf6;" glyph-name="odieresis" horiz-adv-x="520" d="M127 30Q82 64 62 116T41 233Q41 309 66 379T121 478T189 522T269 537Q310 537 366 516T456 431T490 285Q490 227 475 172T437 80T363 16T252 -11Q218 -11 188 -2T127 30ZM271 371Q254 373
240 360T225 320L222 203Q222 178 233 163T262 144Q282 141 295 166T308 215L307 316Q307 337 298 353T271 371ZM622 589Q603 589 585 600T564 634Q559 668 587 680T649 692Q673 692 692 683T715 649Q719 617 687 603T622 589ZM415 589Q395 589 377 600T355 634Q350
668 378 680T440 692Q472 692 487 681T506 649Q510 617 479 603T415 589Z" />
<glyph unicode="&#xf8;" glyph-name="oslash" horiz-adv-x="520" d="M306 331L230 168Q243 147 262 144Q282 141 295 166T308 215L307 316L306 331ZM223 230L286 365Q280 370 271 371Q254 373 240 360T225 320L223 230ZM128 29Q83 63 62 117T41 233Q41 309 66
379T122 478T189 522T269 537Q310 537 349 522L358 518L380 564Q388 581 397 593Q401 593 407 592T417 578Q417 572 414 565T406 546L386 503Q441 470 465 413T490 286Q490 228 475 172T436 79T362 15T251 -11Q227 -11 203 -6T157 11L131 -45Q126 -56 117 -63T101
-67Q94 -63 94 -52Q94 -42 100 -30L128 29Z" />
<glyph unicode="&#xf9;" glyph-name="ugrave" horiz-adv-x="580" d="M458 0Q444 -3 432 -3Q402 -3 375 15T334 55T314 76Q306 76 293 54T244 15T168 -3Q135 -3 111 9T77 43T62 90T57 141Q57 165 63 219T70 282Q70 305 54 337T35 390T31 456Q31 487 63 509T137
531Q173 531 201 510T240 457T252 379Q252 358 247 307T242 238Q242 216 243 207T250 179T275 161Q288 161 300 169T322 197T332 253Q332 283 314 351T296 437Q296 444 299 467T333 512T402 534Q442 534 469 508T507 452T517 381Q517 367 514 326T510 264Q510 237
513 218T529 170T546 125T551 92Q551 86 546 66T519 28T458 0ZM330 583Q262 583 207 618T148 676Q144 700 172 708T232 717Q241 717 251 711T288 685T335 652Q360 631 364 608Q367 593 357 588T330 583Z" />
<glyph unicode="&#xfa;" glyph-name="uacute" horiz-adv-x="580" d="M458 0Q444 -3 432 -3Q402 -3 375 15T334 55T314 76Q306 76 293 54T244 15T168 -3Q135 -3 111 9T77 43T62 90T57 141Q57 165 63 219T70 282Q70 305 54 337T35 390T31 456Q31 487 63 509T137
531Q173 531 201 510T240 457T252 379Q252 358 247 307T242 238Q242 216 243 207T250 179T275 161Q288 161 300 169T322 197T332 253Q332 283 314 351T296 437Q296 444 299 467T333 512T402 534Q442 534 469 508T507 452T517 381Q517 367 514 326T510 264Q510 237
513 218T529 170T546 125T551 92Q551 86 546 66T519 28T458 0ZM414 676Q411 654 356 619T232 583Q213 583 204 587T198 608Q202 631 227 652Q257 672 269 681T299 704T330 717Q362 717 390 709T414 676Z" />
<glyph unicode="&#xfb;" glyph-name="ucircumflex" horiz-adv-x="580" d="M458 0Q444 -3 432 -3Q402 -3 375 15T334 55T314 76Q306 76 293 54T244 15T168 -3Q135 -3 111 9T77 43T62 90T57 141Q57 165 63 219T70 282Q70 305 54 337T35 390T31 456Q31 487 63 509T137
531Q173 531 201 510T240 457T252 379Q252 358 247 307T242 238Q242 216 243 207T250 179T275 161Q288 161 300 169T322 197T332 253Q332 283 314 351T296 437Q296 444 299 467T333 512T402 534Q442 534 469 508T507 452T517 381Q517 367 514 326T510 264Q510 237
513 218T529 170T546 125T551 92Q551 86 546 66T519 28T458 0ZM407 573Q389 573 339 601T268 629Q248 629 198 601T129 573Q119 573 113 581T106 602Q106 633 174 685T268 737Q295 737 363 686T431 602Q431 573 407 573Z" />
<glyph unicode="&#xfc;" glyph-name="udieresis" horiz-adv-x="580" d="M458 0Q444 -3 432 -3Q402 -3 375 15T334 55T314 76Q306 76 293 54T244 15T168 -3Q135 -3 111 9T77 43T62 90T57 141Q57 165 63 219T70 282Q70 305 54 337T35 390T31 456Q31 487 63 509T137
531Q173 531 201 510T240 457T252 379Q252 358 247 307T242 238Q242 216 243 207T250 179T275 161Q288 161 300 169T322 197T332 253Q332 283 314 351T296 437Q296 444 299 467T333 512T402 534Q442 534 469 508T507 452T517 381Q517 367 514 326T510 264Q510 237
513 218T529 170T546 125T551 92Q551 86 546 66T519 28T458 0ZM608 589Q589 589 571 600T550 634Q545 668 573 680T635 692Q659 692 678 683T701 649Q705 617 673 603T608 589ZM401 589Q381 589 363 600T341 634Q336 668 364 680T426 692Q458 692 473 681T492 649Q496
617 465 603T401 589Z" />
<glyph unicode="&#xfd;" glyph-name="BS" horiz-adv-x="580" d="M478 310Q447 276 432 230T397 84T365 -68T294 -168T174 -215Q142 -215 112 -202T54 -162T26 -94Q26 -71 38 -46T66 -11T116 6Q126 8 148 -3T179 -14Q190 -14 195 -4T201 34Q198 64 173 154T131
277Q85 324 57 363T28 439Q28 464 39 488T77 526T134 540Q162 540 202 525T258 455Q270 404 277 372T290 340Q292 340 295 350T299 373Q314 447 349 495T449 543Q464 543 491 538T539 505T560 447Q560 441 557 424T539 384T478 310ZM442 676Q439 654 384 619T260
583Q241 583 232 587T226 608Q230 631 255 652Q285 672 297 681T327 704T358 717Q390 717 418 709T442 676Z" />
<glyph unicode="&#xff;" glyph-name="ydieresis" horiz-adv-x="580" d="M478 310Q447 276 432 230T397 84T365 -68T294 -168T174 -215Q142 -215 112 -202T54 -162T26 -94Q26 -71 38 -46T66 -11T116 6Q126 8 148 -3T179 -14Q190 -14 195 -4T201 34Q198 64 173 154T131
277Q85 324 57 363T28 439Q28 464 39 488T77 526T134 540Q162 540 202 525T258 455Q270 404 277 372T290 340Q292 340 295 350T299 373Q314 447 349 495T449 543Q464 543 491 538T539 505T560 447Q560 441 557 424T539 384T478 310ZM380 589Q361 589 343 600T322
634Q317 668 345 680T407 692Q431 692 450 683T473 649Q477 617 445 603T380 589ZM173 589Q153 589 135 600T113 634Q108 668 136 680T198 692Q230 692 245 681T264 649Q268 617 237 603T173 589Z" />
</font>
</defs>
</svg>
